<?xml version='1.0' encoding='utf-8'?>
<svg xmlns="http://www.w3.org/2000/svg" id="katman_2" data-name="katman 2" viewBox="0 0 2995.13 3000.54">
  <g id="_3000x3000" data-name="3000x3000">
    <path d="M626.12,1552.1c-.42,1.06-.66,2.21-.68,3.4-.25,0-.5-.02-.75-.02,.47-1.13,.95-2.26,1.43-3.38Z"/>
    <path
      d="M2158.62,1802.39c-.1-1.32-.21-2.63-.32-3.94-7.44-88.14-29.42-173.98-65.34-255.12-35.31-79.77-83.11-152.88-142.08-217.3-59.53-65.03-128.78-119.36-205.81-161.47-79.7-43.57-166.01-73.05-256.51-87.61-90.51-14.57-181.7-13.67-271.05,2.69-86.36,15.81-169.15,45.66-246.09,88.73-76.21,42.66-144.54,97.07-203.09,161.73-19.83,21.9-38.37,44.78-55.54,68.57-26.51,36.7-49.8,75.55-69.68,116.27-.16,.29-.31,.58-.43,.89-5.71,11.71-11.14,23.58-16.27,35.6-.04,.09-.07,.17-.11,.25-.06,.14-.12,.28-.18,.42-.42,1.06-.66,2.21-.68,3.4-.25,0-.5-.02-.75-.02-321.23-8.06-535.8,27.24-548.16,103.96-12.35,76.78,180.59,177.72,488.54,270.96-.35,1.18-.49,2.43-.38,3.73,6.86,81.25,26.07,160.55,57.18,236.02,.03,.08,.06,.15,.09,.22,2.61,6.32,5.3,12.61,8.07,18.88,5.27,11.92,10.82,23.68,16.66,35.29,33.17,66.12,75.25,127.2,125.41,182,59.54,65.04,128.79,119.37,205.82,161.47,79.7,43.57,166,73.05,256.51,87.62,42.62,6.86,85.39,10.29,128.05,10.29,47.93,0,95.72-4.33,142.99-12.99,86.36-15.8,169.16-45.66,246.1-88.72,76.2-42.66,144.53-97.07,203.08-161.73,4.67-5.16,9.27-10.36,13.77-15.62,.12-.13,.25-.27,.36-.41,.11-.12,.21-.24,.3-.36,.04-.05,.08-.09,.12-.15,52.85-61.64,95.7-130.58,127.55-205.19,.51-1.2,.77-2.44,.79-3.66,41.35,1.05,80.94,1.37,118.56,.98-3.64-11.2-5.6-23.14-5.6-35.53,0-5.74,.42-11.38,1.24-16.89-29.56,2.03-61.37,3.36-95.23,3.97,15.31-44.04,26.86-89.86,34.32-136.26,7.47-46.38,10.9-93.51,10.2-140.16,191.51,67.19,305.53,135.65,296.84,189.58-2.39,14.86-13.97,27.84-33.73,38.93,11.01,17.68,17.36,38.53,17.36,60.83,0,7.49-.72,14.82-2.1,21.92,124.64-16.24,199.88-46.81,207.05-91.32,12.34-76.72-180.3-177.57-487.83-270.75Zm-1596.66,76.98c-191.52-67.17-305.54-135.64-296.86-189.57,8.69-53.94,138.44-83.16,341.37-86.85-15.3,44.05-26.85,89.87-34.31,136.27-7.47,46.39-10.9,93.52-10.2,140.15Zm1395.21,490.49c-128.41-1.45-376.62-9.26-625.54-44.84-5.48-.77-10.53,3.02-11.31,8.49-.79,5.47,3.01,10.53,8.48,11.31,239.43,34.22,478.08,42.88,611.09,44.82-173.16,191.71-435.27,289.22-702.28,246.24-210.69-33.91-391.04-149.93-508.97-313.5,46.5,13.86,93.18,27.06,139.15,39.33,.86,.23,1.73,.34,2.59,.34,4.41,0,8.46-2.95,9.65-7.42,1.43-5.34-1.75-10.82-7.08-12.24-53.66-14.33-108.32-29.92-162.49-46.35h0c-12.69-19.24-24.56-39.07-35.53-59.44,31.62,9.87,63.85,19.6,96.13,28.99,.94,.27,1.88,.4,2.8,.4,4.34,0,8.33-2.84,9.6-7.21,1.54-5.3-1.5-10.85-6.81-12.39-38.61-11.24-77.15-22.95-114.63-34.83-4.72-9.55-9.24-19.22-13.56-28.99,79.97,25.61,196.42,60.59,328.23,92.95,.8,.2,1.6,.29,2.39,.29,4.5,0,8.59-3.05,9.71-7.62,1.31-5.36-1.97-10.77-7.33-12.09-140.56-34.51-263.61-72.03-343.28-97.86-28-69.56-46.26-144.08-53.22-221.87,205.92,61.14,460.82,118.65,738.94,163.41,278.12,44.78,538.18,70.16,752.89,76.73-30.89,71.42-71.43,136.24-119.62,193.35Zm173.91-379.68c-7.47,46.45-19.13,92.3-34.65,136.28-.4,1.14-.58,2.3-.57,3.44-202.22,1.93-472.24-20.36-765.91-67.63-293.67-47.28-557.05-110.85-748.46-176.14,.37-1.08,.56-2.24,.54-3.45-.93-46.64,2.39-93.84,9.87-140.28s19.14-92.3,34.65-136.29c.34-.96,.68-1.91,1.03-2.87,78.14,27.32,310.36,104.96,574.79,159.99,.69,.14,1.38,.21,2.05,.21,4.64,0,8.8-3.24,9.78-7.96,1.13-5.41-2.34-10.71-7.75-11.83-262.85-54.7-493.75-131.85-571.89-159.16h0c3.16-8.21,6.47-16.37,9.9-24.42,.03-.06,.06-.12,.09-.19s.06-.13,.09-.2c3.97-9.3,8.1-18.49,12.39-27.56,66.63,22.89,193.97,64.51,350.34,105.3,.85,.23,1.7,.33,2.53,.33,4.44,0,8.5-2.98,9.67-7.48,1.39-5.34-1.81-10.8-7.15-12.2-153.94-40.15-279.59-81.11-346.54-104.06,17.29-34.29,36.89-66.87,58.54-97.62,76.14,25.14,193.17,61.54,329.58,96.3,.83,.21,1.66,.31,2.48,.31,4.46,0,8.53-3.01,9.68-7.54,1.37-5.35-1.87-10.79-7.22-12.16-132.3-33.7-246.3-68.96-322.21-93.91,35.32-47.41,75.62-90.19,119.93-127.81,32.38,9.91,64.98,19.53,96.99,28.62,.91,.26,1.83,.38,2.74,.38,4.35,0,8.36-2.87,9.61-7.27,1.51-5.31-1.57-10.84-6.89-12.35-27.69-7.87-55.84-16.13-83.9-24.64,11.84-9.45,23.95-18.53,36.3-27.24,84.08,24.85,167.45,47.15,247.86,66.32,.78,.19,1.56,.28,2.33,.28,4.52,0,8.62-3.09,9.72-7.69,1.28-5.37-2.04-10.76-7.41-12.04-75.05-17.9-152.71-38.54-231.12-61.44,158.49-104.15,354.14-149.75,552.49-117.82,197.19,31.74,367.81,135.41,485.55,282.68-73.53-2.69-146.34-6.83-216.74-12.31-5.51-.43-10.32,3.69-10.75,9.19-.43,5.51,3.69,10.32,9.19,10.75,75.98,5.91,154.75,10.27,234.19,12.95,9.1,12.18,17.84,24.64,26.21,37.36-117.25-3.24-231.93-10.05-341.15-20.24-5.51-.51-10.38,3.53-10.89,9.03s3.53,10.37,9.03,10.88c113.84,10.63,233.58,17.58,355.95,20.67,30.57,49.7,55.68,103.09,74.57,159.34-63.88-.37-158.88-2.2-269.65-8.34-5.53-.33-10.23,3.92-10.53,9.43-.31,5.52,3.91,10.23,9.43,10.54,115,6.38,213.09,8.12,277.17,8.4,11.04,36.05,19.54,73.22,25.31,111.28-35.65,.23-98.54,.1-178.69-2.25-5.49-.12-10.13,4.19-10.29,9.71-.16,5.52,4.18,10.12,9.7,10.29,63.5,1.86,116.21,2.33,153.22,2.33,11.05,0,20.7-.04,28.82-.1,1.33,10.55,2.44,21.17,3.34,31.85,1.38,16.36,2.25,33.11,2.59,49.76,.93,46.66-2.4,93.86-9.88,140.29Z"/>
    <path
      d="M1447.19,1400.03c-.76,4.94-5.02,8.48-9.87,8.48-.51,0-1.02-.04-1.54-.12-6.35-.98-12.7-1.98-19.04-3l-4.56-.73c-27.7-4.5-56.4-9.55-85.3-15.04-5.42-1.03-8.99-6.27-7.96-11.69,1.03-5.43,6.25-8.99,11.69-7.96,28.73,5.45,57.25,10.48,84.78,14.95l4.51,.72c6.31,1.02,12.62,2.01,18.93,2.98,5.46,.85,9.2,5.95,8.36,11.41Z"/>
    <path
      d="M1343.1,1700.35c-.84,4.87-5.07,8.3-9.84,8.3-.57,0-1.14-.04-1.72-.14-45.86-7.92-93.87-17.26-142.67-27.77-5.4-1.16-8.83-6.48-7.67-11.88,1.16-5.4,6.48-8.83,11.88-7.67,48.54,10.45,96.27,19.74,141.87,27.61,5.44,.94,9.09,6.11,8.15,11.55Z"/>
    <path
      d="M1727.1,1822.63c-.37,5.27-4.76,9.29-9.96,9.29-.24,0-.48,0-.72-.02-90.6-6.41-177.87-15.04-259.39-25.65-5.48-.71-9.34-5.73-8.63-11.2,.72-5.48,5.73-9.35,11.21-8.63,81.13,10.56,168.01,19.15,258.22,25.53,5.51,.39,9.66,5.17,9.27,10.68Z"/>
    <path
      d="M1420.27,2390.94c-.6,5.08-4.92,8.82-9.92,8.82-.39,0-.79-.03-1.19-.07-49.74-5.93-98.25-12.67-144.19-20.03l-4.55-.74c-8.49-1.38-17.13-2.82-25.7-4.28-5.44-.93-9.1-6.1-8.17-11.54,.93-5.45,6.09-9.11,11.54-8.17,8.51,1.45,17.1,2.88,25.53,4.25l4.51,.73c45.68,7.32,93.93,14.02,143.4,19.92,5.48,.65,9.39,5.63,8.74,11.11Z"/>
    <path
      d="M1595.12,1600.09c-.55,5.13-4.88,8.94-9.93,8.94-.36,0-.71-.02-1.07-.05-31.73-3.38-63.21-7.1-93.56-11.05-5.47-.71-9.34-5.72-8.62-11.2,.71-5.48,5.73-9.35,11.2-8.63,30.2,3.93,61.52,7.63,93.1,10.99,5.49,.58,9.47,5.51,8.88,11Z"/>
    <path
      d="M2429,2955.27c-43.62,.91-44.36,1.64-45.27,45.27-.91-43.62-1.64-44.36-45.27-45.27,43.62-.91,44.36-1.64,45.27-45.27,.43,20.45,.81,31.47,5.6,37.51,.02,.02,.03,.04,.05,.06,5.44,6.78,16.51,7.21,39.62,7.69Z"/>
    <path
      d="M1007.13,756.29c-56.26,1.17-57.21,2.12-58.38,58.38-1.17-56.26-2.12-57.21-58.38-58.38,56.26-1.17,57.21-2.12,58.38-58.38,1.17,56.26,2.12,57.21,58.38,58.38Z"/>
    <path
      d="M2995.13,586.29c-56.26,1.17-57.21,2.12-58.38,58.38-1.17-56.26-2.12-57.21-58.38-58.38,56.26-1.17,57.21-2.12,58.38-58.38,1.17,56.26,2.12,57.21,58.38,58.38Z"/>
    <path
      d="M2146.13,145.29c-56.26,1.17-57.21,2.12-58.38,58.38-1.17-56.26-2.12-57.21-58.38-58.38,56.26-1.17,57.21-2.12,58.38-58.38,1.17,56.26,2.12,57.21,58.38,58.38Z"/>
    <path
      d="M2384.13,1260.29c-56.26,1.17-57.21,2.12-58.38,58.38-1.17-56.26-2.12-57.21-58.38-58.38,56.26-1.17,57.21-2.12,58.38-58.38,1.17,56.26,2.12,57.21,58.38,58.38Z"/>
    <path
      d="M258.04,33.29c-32.08,.67-32.62,1.21-33.29,33.29-.67-32.08-1.21-32.62-33.29-33.29,32.08-.67,32.62-1.21,33.29-33.29,.67,32.08,1.21,32.62,33.29,33.29Z"/>
    <path
      d="M432.13,2563.29c-56.26,1.17-57.21,2.12-58.38,58.38-1.17-56.26-2.12-57.21-58.38-58.38,56.26-1.17,57.21-2.12,58.38-58.38,1.17,56.26,2.12,57.21,58.38,58.38Z"/>
    <path
      d="M2925.7,1583.43c-65.84-589.76-493.94-1105.95-1062.53-1277.39-15.66-5.1-35.86-10.59-51.72-15.2-12.59-3.16-30.94-8.1-43.51-11.2-5.53-1.26-37.68-8.55-43.83-9.93-3.04-.52-37.44-7.52-39.68-7.84-2.94-.59-10.25-1.81-13.29-2.3-10.21-1.65-25.37-4.42-35.48-5.87-16.44-2.23-37.05-5.4-53.48-7.04-367.76-43.24-743.27,52.84-1047.14,263.69l-7.08-9.89-9.44,6.75,1.2,1.69-114.54,64.98c-2.76,1.21-5.44,2.72-8,4.54-19.69,14.09-42.45,84.26-42.45,84.26,0,0,73.76,1.13,93.45-12.96,2.56-1.82,4.85-3.88,6.88-6.1l98.5-87.41,1.21,1.69,9.45-6.76-7.71-10.77c116.45-81.87,244.47-147.38,379.18-193.59,12.42-4.38,29.44-9.57,41.87-13.72,22.35-6.97,53.72-15.55,76.36-21.47,162.32-41.09,332.01-54.55,498.81-39.76,13.46,1.46,30.51,2.96,43.9,4.6,12.72,1.86,31.13,3.73,43.75,5.88,9.73,1.56,25.14,4.02,34.88,5.57,21.51,3.74,56.55,10.78,77.91,15.67,9.81,2.06,24.48,5.81,34.35,8.29,498.17,121.76,908.78,508.16,1064.86,996.31,178.62,537,24.98,1154.58-381.25,1547.22,.04,.05,.08,.11,.13,.16,338.72-322.74,511.56-807.63,454.44-1272.1ZM424.43,622.96c-3.7,2.65-8.85,1.79-11.5-1.91-2.65-3.71-1.79-8.85,1.91-11.5,3.71-2.65,8.85-1.8,11.5,1.91,2.65,3.7,1.8,8.85-1.91,11.5Zm17.07-12.21c-3.71,2.65-8.86,1.79-11.5-1.91-2.65-3.7-1.8-8.85,1.91-11.5,3.7-2.65,8.84-1.79,11.49,1.91,2.65,3.7,1.8,8.85-1.9,11.5Zm29.6-10.12c-7.74,5.53-18.5,3.75-24.04-3.99-5.54-7.75-3.75-18.51,3.99-24.05,7.74-5.53,18.5-3.75,24.04,3.99,5.54,7.74,3.75,18.51-3.99,24.05Z"/>
    <path
      d="M152,182.27c-10.08,31.32-39.46,53.98-74.13,53.98C34.86,236.25,0,201.39,0,158.38c0-21.52,8.73-41,22.84-55.1-2.42,7.53-3.73,15.56-3.73,23.89,0,43.01,34.86,77.87,77.86,77.87,21.49,0,40.93-8.7,55.03-22.77Z"/>
    <path
      d="M2416.5,2142.54c0,8.69-1.23,17.11-3.54,25.07-10.89,37.74-45.75,65.43-86.96,65.43-37.45,0-69.66-22.87-83.4-55.37-4.57-10.8-7.1-22.68-7.1-35.13,0-6.47,.68-12.79,1.99-18.88,8.7-40.87,45.08-71.62,88.51-71.62,31.34,0,59.01,16.02,75.25,40.29,9.63,14.37,15.25,31.65,15.25,50.21Z"/>
  </g>
</svg>
