<svg
        version="1.1"
        baseProfile="full"
        width="100%" height="100%"
        xmlns="http://www.w3.org/2000/svg"
        viewBox="0 0 1400 800"
>
    <g id="页面-1" stroke="none" stroke-width="1" fill="none" fill-rule="evenodd">
        <g id="sidebar_bg" fill="#DDDDDD" fill-rule="nonzero" transform="translate(0, 160)">
            <path d="M83.4676425,206.909423 C83.4116526,207.050731 83.3796583,207.204037 83.3769921,207.362675 C83.3436648,207.362675 83.3103375,207.360009 83.2770101,207.360009 C83.3396655,207.209369 83.403654,207.058729 83.4676425,206.909423 Z"
                  id="路径"/>
            <path d="M287.764202,240.275417 C287.750872,240.099449 287.736207,239.924814 287.721543,239.750178 C286.729722,228.000293 283.799583,216.55702 279.011111,205.7403 C274.303959,195.106214 267.931772,185.359969 260.070521,176.772181 C252.134616,168.103075 242.902944,160.860378 232.634126,155.246722 C222.009372,149.438434 210.503443,145.508475 198.438948,143.567491 C186.37312,141.625174 174.216641,141.745153 162.305452,143.926093 C150.792857,146.033714 139.756177,150.012998 129.499357,155.754631 C119.339852,161.441607 110.230825,168.694968 102.425563,177.31475 C99.7820392,180.234225 97.3104841,183.284342 95.0215628,186.455771 C91.4875322,191.348224 88.3827578,196.527292 85.7325681,201.955648 C85.7112386,201.994308 85.6912422,202.032967 85.6752451,202.074293 C84.9140488,203.635346 84.1901791,205.217727 83.5063022,206.820106 C83.5009698,206.832104 83.4969705,206.842768 83.4916382,206.853433 C83.4836396,206.872096 83.4756411,206.89076 83.4676425,206.909423 C83.4116526,207.050731 83.3796583,207.204037 83.3769921,207.362675 C83.3436648,207.362675 83.3103375,207.360009 83.2770101,207.360009 C40.4540516,206.285535 11.849867,210.991355 10.2021636,221.218847 C8.55579329,231.454338 34.2764969,244.910583 75.3291074,257.340345 C75.2824492,257.49765 75.2637859,257.664287 75.2784499,257.837589 C76.1929519,268.668973 78.7538243,279.240403 82.9010778,289.301259 C82.9050771,289.311924 82.9090764,289.321256 82.9130756,289.330587 C83.261013,290.173102 83.6196151,291.011618 83.988882,291.847467 C84.6914222,293.436515 85.431289,295.004233 86.2098156,296.551954 C90.6316863,305.366367 96.2413432,313.508902 102.92814,320.814253 C110.865378,329.484693 120.097049,336.727389 130.365867,342.339712 C140.990622,348.148 152.495218,352.077959 164.561046,354.020276 C170.24269,354.934778 175.94433,355.392029 181.631306,355.392029 C188.020823,355.392029 194.391676,354.8148 200.693209,353.660341 C212.205803,351.554054 223.243816,347.573437 233.500637,341.833137 C243.658808,336.14616 252.767835,328.892799 260.573097,320.273018 C261.195651,319.585141 261.808874,318.891933 262.408766,318.190726 C262.424764,318.173395 262.442094,318.154732 262.456758,318.136069 C262.471422,318.120072 262.484753,318.104075 262.496751,318.088077 C262.502083,318.081412 262.507415,318.07608 262.512748,318.068081 C269.558146,309.850894 275.270451,300.660548 279.516354,290.714338 C279.584341,290.554367 279.619002,290.389063 279.621668,290.226426 C285.134009,290.366401 290.411726,290.40906 295.426823,290.357069 C294.941577,288.864004 294.680291,287.272291 294.680291,285.620588 C294.680291,284.855393 294.736281,284.103528 294.845594,283.368994 C290.90497,283.639612 286.6644,283.816913 282.150546,283.898232 C284.191512,278.027288 285.731235,271.919055 286.725723,265.733501 C287.721543,259.550614 288.178794,253.267745 288.085478,247.048865 C313.615549,256.005919 328.81548,265.132276 327.657022,272.321649 C327.338412,274.302626 325.79469,276.032981 323.160498,277.511381 C324.628234,279.86829 325.474748,282.64779 325.474748,285.620588 C325.474748,286.619075 325.378765,287.596233 325.194798,288.542729 C341.810474,286.377785 351.840669,282.302519 352.796497,276.36892 C354.441534,266.141428 328.760823,252.697181 287.764202,240.275417 Z M74.9145154,250.53757 C49.383111,241.583182 34.1831804,232.455491 35.3403054,225.266119 C36.4987636,218.075413 53.7956501,214.180114 80.848114,213.688203 C78.8084811,219.560479 77.2687583,225.668713 76.2742706,231.854266 C75.2784499,238.038486 74.8211989,244.321355 74.9145154,250.53757 L74.9145154,250.53757 Z M260.909036,315.924467 C243.790784,315.731168 210.702074,314.690022 177.518713,309.946876 C176.788178,309.844228 176.114966,310.34947 176.010985,311.078673 C175.90567,311.807875 176.412246,312.48242 177.141448,312.586401 C209.059703,317.148247 240.873976,318.302706 258.605451,318.561326 C235.521606,344.118059 200.579896,357.117052 164.984969,351.387417 C136.898025,346.866897 112.855686,331.400348 97.1345158,309.59494 C103.3334,311.442607 109.55628,313.20229 115.68451,314.837996 C115.799156,314.868657 115.915135,314.883321 116.029781,314.883321 C116.617675,314.883321 117.157578,314.490058 117.316216,313.894166 C117.506849,313.182294 117.082925,312.451759 116.372386,312.262459 C109.219007,310.352137 101.932319,308.273844 94.710952,306.083572 L94.710952,306.083572 C93.0192565,303.5187 91.4368747,300.875176 89.9744713,298.159665 C94.1897125,299.475428 98.4862725,300.772528 102.789498,302.024302 C102.914809,302.060296 103.040119,302.077626 103.162764,302.077626 C103.741327,302.077626 104.273231,301.699028 104.442534,301.116466 C104.64783,300.409926 104.24257,299.670059 103.534697,299.464763 C98.3876236,297.966366 93.2498817,296.405314 88.2534477,294.821599 C87.6242276,293.548495 87.0216694,292.259393 86.4457731,290.956961 C97.1065208,294.371013 112.630393,299.034174 130.201897,303.348064 C130.308544,303.374726 130.415192,303.386724 130.520506,303.386724 C131.120398,303.386724 131.665634,302.98013 131.81494,302.370907 C131.989575,301.656369 131.552321,300.935165 130.837783,300.759197 C112.099822,296.158691 95.696108,291.156925 85.0753531,287.713545 C81.3426916,278.440547 78.9084631,268.506336 77.9806302,258.136202 C105.431689,266.286735 139.412239,273.953355 176.488232,279.920281 C213.564225,285.889873 248.232651,289.273264 276.855499,290.149106 C272.737574,299.670059 267.333213,308.311171 260.909036,315.924467 L260.909036,315.924467 Z M284.092863,265.309578 C283.097043,271.501796 281.542656,277.614029 279.473695,283.476974 C279.420371,283.628947 279.396375,283.783586 279.397708,283.935558 C252.439894,284.192845 216.443707,281.22138 177.294754,274.919848 C138.1458,268.616982 103.034787,260.142508 77.5180468,251.438741 C77.5673712,251.294767 77.5927,251.140128 77.5900338,250.978824 C77.4660561,244.761276 77.9086431,238.469076 78.905797,232.27819 C79.9029508,226.087304 81.4573377,219.973738 83.5249655,214.10946 C83.5702907,213.981483 83.6156159,213.854839 83.6622741,213.726862 C94.0790658,217.368874 125.03616,227.719011 160.287148,235.055023 C160.379132,235.073687 160.471115,235.083018 160.560432,235.083018 C161.178988,235.083018 161.733555,234.651096 161.864198,234.021876 C162.014837,233.300673 161.552254,232.594133 160.83105,232.444827 C125.790691,225.152806 95.0095649,214.86799 84.5927733,211.227312 L84.5927733,211.227312 C85.0140308,210.132843 85.4552847,209.045039 85.9125357,207.971898 C85.916535,207.9639 85.9205343,207.955901 85.9245336,207.94657 C85.9285329,207.937238 85.9325321,207.929239 85.9365314,207.919908 C86.4657695,206.680131 87.0163371,205.455018 87.5882341,204.245902 C96.4706353,207.297353 113.446246,212.845688 134.291827,218.283376 C134.40514,218.314037 134.518453,218.327368 134.6291,218.327368 C135.220994,218.327368 135.762229,217.930106 135.918201,217.330214 C136.103501,216.618342 135.676911,215.890473 134.96504,215.70384 C114.4434,210.35147 97.6930819,204.89112 88.7680218,201.83167 C91.0729402,197.260493 93.6858032,192.917275 96.5719504,188.818013 C106.722123,192.16941 122.323315,197.021869 140.508042,201.655702 C140.618689,201.683697 140.729335,201.697028 140.838649,201.697028 C141.433209,201.697028 141.975778,201.295767 142.129083,200.691875 C142.311717,199.978671 141.879795,199.253468 141.16659,199.070834 C123.529765,194.578309 108.3325,189.877822 98.2129883,186.551754 C102.921474,180.231558 108.29384,174.528585 114.200777,169.513488 C118.517334,170.834583 122.863218,172.117019 127.13045,173.328801 C127.251761,173.363461 127.374406,173.379458 127.495717,173.379458 C128.075613,173.379458 128.610184,172.996861 128.77682,172.410299 C128.978117,171.702427 128.567525,170.965226 127.858319,170.763929 C124.166983,169.714785 120.414325,168.61365 116.673665,167.479187 C118.252048,166.219414 119.866424,165.008965 121.512794,163.847841 C132.721443,167.160578 143.835443,170.133376 154.554847,172.688916 C154.658828,172.714245 154.762809,172.726243 154.865458,172.726243 C155.468016,172.726243 156.014584,172.314317 156.161224,171.701094 C156.33186,170.985223 155.889273,170.266685 155.173402,170.096049 C145.168536,167.709812 134.815733,164.958308 124.362948,161.905524 C145.491145,148.021356 171.573117,141.94245 198.015024,146.199018 C224.302292,150.430256 247.047531,164.250435 262.743373,183.882901 C252.941137,183.524299 243.234884,182.972398 233.849907,182.241863 C233.115373,182.18454 232.474155,182.733775 232.416832,183.466976 C232.359509,184.20151 232.908743,184.842728 233.641944,184.900051 C243.770788,185.68791 254.271564,186.269138 264.861658,186.626407 C266.074773,188.250115 267.239897,189.911149 268.355696,191.606844 C252.725176,191.174922 237.437261,190.267085 222.877215,188.908663 C222.142681,188.840675 221.493465,189.379245 221.425477,190.112446 C221.357489,190.845648 221.896059,191.494864 222.62926,191.562852 C237.805195,192.97993 253.767655,193.90643 270.080719,194.318356 C274.155985,200.94383 277.503383,208.061216 280.021596,215.559866 C271.505796,215.510541 258.841409,215.266585 244.074733,214.448066 C243.337533,214.404074 242.710979,214.970639 242.670986,215.705173 C242.62966,216.441041 243.192225,217.068928 243.928093,217.110253 C259.258667,217.960767 272.33498,218.192725 280.877442,218.230052 C282.349177,223.035854 283.482307,227.990962 284.251501,233.064715 C279.499024,233.095376 271.115199,233.078046 260.430456,232.764769 C259.698588,232.748772 259.080032,233.323335 259.058703,234.059203 C259.037373,234.79507 259.615936,235.408293 260.351803,235.430956 C268.816946,235.678911 275.843681,235.741567 280.77746,235.741567 C282.250528,235.741567 283.536963,235.736234 284.619435,235.728236 C284.796737,237.134649 284.94471,238.550394 285.064688,239.974138 C285.248655,242.155079 285.364634,244.38801 285.40996,246.607611 C285.533937,252.827824 285.090017,259.120025 284.092863,265.309578 L284.092863,265.309578 Z"
                  id="形状"/>
            <path d="M192.92394,186.637072 C192.822625,187.29562 192.254727,187.767535 191.608177,187.767535 C191.540189,187.767535 191.472202,187.762203 191.402881,187.751538 C190.556367,187.620895 189.709852,187.487586 188.864671,187.35161 L188.25678,187.254294 C184.564112,186.654402 180.738134,185.98119 176.885494,185.249322 C176.162957,185.112013 175.687043,184.413472 175.824352,183.690936 C175.96166,182.967066 176.657535,182.492485 177.382738,182.629793 C181.212715,183.356329 185.014697,184.026875 188.684703,184.622768 L189.285929,184.718751 C190.12711,184.854726 190.968292,184.986702 191.809474,185.116012 C192.537343,185.229325 193.03592,185.909203 192.92394,186.637072 L192.92394,186.637072 Z"
                  id="路径"/>
            <path d="M179.047771,226.672532 C178.935792,227.321749 178.371893,227.779 177.736008,227.779 C177.660021,227.779 177.584035,227.773667 177.506715,227.760336 C171.393149,226.704527 164.992968,225.459417 158.487472,224.058336 C157.767602,223.903697 157.310351,223.194492 157.46499,222.474621 C157.619628,221.754751 158.328834,221.2975 159.048705,221.452139 C165.51954,222.845221 171.882395,224.083665 177.9613,225.132809 C178.686503,225.25812 179.173082,225.947329 179.047771,226.672532 L179.047771,226.672532 Z"
                  id="路径"/>
            <path d="M230.238557,242.973598 C230.189233,243.676138 229.604005,244.212042 228.910796,244.212042 C228.878802,244.212042 228.846808,244.212042 228.814813,244.209376 C216.736987,243.354863 205.103081,242.204403 194.235704,240.789991 C193.505169,240.695342 192.990595,240.026129 193.085245,239.296927 C193.181227,238.566391 193.849107,238.050484 194.579642,238.146467 C205.395029,239.554214 216.976944,240.699341 229.002779,241.549854 C229.737314,241.601845 230.290548,242.239064 230.238557,242.973598 L230.238557,242.973598 Z"
                  id="路径"/>
            <path d="M189.335253,318.734628 C189.255267,319.411839 188.679371,319.910416 188.012824,319.910416 C187.960834,319.910416 187.90751,319.906417 187.854186,319.901084 C181.22338,319.11056 174.756544,318.212055 168.632313,317.230898 L168.025755,317.13225 C166.893959,316.948283 165.742166,316.756317 164.599705,316.561686 C163.874503,316.437708 163.38659,315.748499 163.510568,315.023296 C163.634546,314.29676 164.322422,313.808848 165.048958,313.934159 C166.18342,314.127457 167.328548,314.318089 168.452345,314.500723 L169.05357,314.598039 C175.143141,315.573863 181.575316,316.467036 188.170129,317.253561 C188.900665,317.340212 189.421904,318.004093 189.335253,318.734628 L189.335253,318.734628 Z"
                  id="路径"/>
            <path d="M212.644391,213.306938 C212.571071,213.990815 211.993841,214.498724 211.320629,214.498724 C211.272638,214.498724 211.225979,214.496057 211.177988,214.492058 C206.948083,214.041473 202.751505,213.545562 198.705566,213.01899 C197.976364,212.92434 197.460457,212.256461 197.55644,211.525925 C197.651089,210.79539 198.320302,210.279483 199.049504,210.375466 C203.075446,210.899371 207.250695,211.392616 211.460604,211.840535 C212.192472,211.917855 212.723043,212.57507 212.644391,213.306938 L212.644391,213.306938 Z"
                  id="路径"/>
            <path d="M323.808381,393.965086 C317.993428,394.086398 317.894779,394.183714 317.773467,400 C317.652156,394.185047 317.55484,394.086398 311.738554,393.965086 C317.553507,393.843775 317.652156,393.746459 317.773467,387.930173 C317.83079,390.656349 317.881448,392.125417 318.52,392.930606 C318.522666,392.933272 318.523999,392.935938 318.526665,392.938604 C319.251868,393.842442 320.727602,393.899765 323.808381,393.963753 L323.808381,393.965086 Z"
                  id="路径"/>
            <path d="M134.259833,100.820519 C126.75985,100.976491 126.633206,101.103135 126.477234,108.603118 C126.321262,101.103135 126.194618,100.976491 118.694635,100.820519 C126.194618,100.664547 126.321262,100.537903 126.477234,93.0379198 C126.633206,100.537903 126.75985,100.664547 134.259833,100.820519 Z"
                  id="路径"/>
            <path d="M399.278796,78.1579316 C391.778813,78.3139035 391.652169,78.4405474 391.496197,85.9405307 C391.340225,78.4405474 391.213582,78.3139035 383.713598,78.1579316 C391.213582,78.0019596 391.340225,77.8753158 391.496197,70.3753324 C391.652169,77.8753158 391.778813,78.0019596 399.278796,78.1579316 Z"
                  id="路径"/>
            <path d="M286.099169,19.3685137 C278.599185,19.5244856 278.472542,19.6511295 278.31657,27.1511128 C278.160598,19.6511295 278.033954,19.5244856 270.533971,19.3685137 C278.033954,19.2125417 278.160598,19.0858979 278.31657,11.5859145 C278.472542,19.0858979 278.599185,19.2125417 286.099169,19.3685137 Z"
                  id="路径"/>
            <path d="M317.826791,168.008425 C310.326808,168.164397 310.200164,168.291041 310.044192,175.791024 C309.88822,168.291041 309.761576,168.164397 302.261593,168.008425 C309.761576,167.852453 309.88822,167.725809 310.044192,160.225826 C310.200164,167.725809 310.326808,167.852453 317.826791,168.008425 Z"
                  id="路径"/>
            <path d="M34.3991415,4.43786785 C30.1225779,4.52718511 30.0505909,4.59917215 29.9612736,8.8757357 C29.8719564,4.59917215 29.7999693,4.52718511 25.5234058,4.43786785 C29.7999693,4.34855059 29.8719564,4.27656355 29.9612736,0 C30.0505909,4.27656355 30.1225779,4.34855059 34.3991415,4.43786785 Z"
                  id="路径"/>
            <path d="M57.6069641,341.710492 C50.1069807,341.866464 49.9803369,341.993108 49.8243649,349.493091 C49.668393,341.993108 49.5417492,341.866464 42.0417658,341.710492 C49.5417492,341.55452 49.668393,341.427876 49.8243649,333.927893 C49.9803369,341.427876 50.1069807,341.55452 57.6069641,341.710492 Z"
                  id="路径"/>
            <path d="M390.023129,211.086005 C381.246042,132.46549 324.176315,63.6525425 248.377959,40.7979897 C246.290334,40.1181121 243.597486,39.3862438 241.4832,38.7716878 C239.804835,38.3504303 237.358609,37.6918821 235.68291,37.2786232 C234.94571,37.1106534 230.659815,36.1388283 229.839962,35.9548615 C229.434702,35.8855406 224.848861,34.9523752 224.550248,34.9097163 C224.158318,34.8310637 223.183827,34.6684263 222.778567,34.6031048 C221.417478,34.3831444 219.396509,34.0138775 218.048751,33.820579 C215.857146,33.5232991 213.10964,33.1007085 210.919368,32.8820812 C161.893526,27.1177855 111.834536,39.9261466 71.325828,68.0344205 L70.3819979,66.7159911 L69.1235578,67.6158292 L69.283529,67.8411219 L54.0142774,76.5035627 C53.6463437,76.664867 53.2890746,76.8661641 52.9478027,77.1087871 C50.3229419,78.9871157 47.2888213,88.3414319 47.2888213,88.3414319 C47.2888213,88.3414319 57.1217181,88.4920714 59.7465789,86.6137429 C60.0878509,86.3711199 60.3931292,86.0965026 60.6637472,85.8005559 L73.794717,74.1479867 L73.9560212,74.3732795 L75.2157945,73.4721084 L74.1879795,72.0363668 C89.7118519,61.1223313 106.778113,52.3892366 124.736214,46.2290121 C126.391916,45.6451172 128.660841,44.9532417 130.317876,44.400008 C133.29734,43.4708419 137.479254,42.3270478 140.497377,41.5378565 C162.136149,36.0601758 184.75741,34.2658322 206.993408,36.2374773 C208.787752,36.4321089 211.060676,36.6320729 212.845688,36.8507002 C214.541383,37.0986556 216.995607,37.347944 218.677971,37.6345591 C219.975071,37.8425217 222.029368,38.1704627 223.327801,38.3770921 C226.195285,38.875669 230.866444,39.8141668 233.713931,40.4660494 C235.021696,40.7406667 236.977344,41.2405767 238.293107,41.5711839 C304.70382,57.8029288 359.441967,109.313657 380.248889,174.38861 C404.060602,245.975724 383.578956,328.304905 329.424704,380.647483 C329.430036,380.654149 329.435368,380.662147 329.442034,380.668813 C374.596573,337.644557 397.637759,273.004193 390.023129,211.086005 Z M56.5804822,83.046385 C56.0872376,83.3996547 55.4006945,83.2850087 55.0474248,82.7917641 C54.6941551,82.2971865 54.8088011,81.6119765 55.3020456,81.2587068 C55.7966233,80.905437 56.4818333,81.01875 56.835103,81.5133276 C57.1883728,82.0065722 57.0750598,82.6931152 56.5804822,83.046385 Z M58.8560726,81.418678 C58.3614949,81.7719477 57.6749518,81.6573017 57.3230152,81.1640571 C56.9697454,80.6708126 57.0830584,79.9842695 57.577636,79.6309998 C58.0708806,79.27773 58.7560906,79.392376 59.1093603,79.8856206 C59.4626301,80.3788651 59.3493171,81.0654082 58.8560726,81.418678 L58.8560726,81.418678 Z M62.802029,80.0695875 C61.7702147,80.8067881 60.3358062,80.5694975 59.5972725,79.5376832 C58.8587388,78.5045359 59.0973625,77.0701274 60.1291767,76.3315936 C61.160991,75.594393 62.5953995,75.8316836 63.3339332,76.8634979 C64.072467,77.8953122 63.8338432,79.3310537 62.802029,80.0695875 Z"
                  id="形状"/>
            <path d="M20.2630193,24.298293 C18.9192612,28.4735414 15.0026329,31.494331 10.3807981,31.494331 C4.64716351,31.494331 0,26.8471675 0,21.1135329 C0,18.244716 1.16379052,15.6478501 3.04478527,13.7681884 C2.72217667,14.7720077 2.54754144,15.8424817 2.54754144,16.9529485 C2.54754144,22.6865831 7.19470495,27.3337466 12.9270065,27.3337466 C15.7918241,27.3337466 18.3833577,26.1739554 20.2630193,24.298293 Z"
                  id="路径"/>
            <path d="M322.142014,285.620588 C322.142014,286.779046 321.978044,287.901511 321.670099,288.962653 C320.218361,293.993748 315.571197,297.685083 310.077519,297.685083 C305.085085,297.685083 300.791191,294.636299 298.959521,290.303745 C298.350297,288.864004 298.013024,287.28029 298.013024,285.620588 C298.013024,284.758077 298.103675,283.915562 298.27831,283.103708 C299.438101,277.655355 304.287895,273.556093 310.077519,273.556093 C314.255434,273.556093 317.944103,275.691709 320.109047,278.927126 C321.392816,280.842782 322.142014,283.146367 322.142014,285.620588 Z"
                  id="路径"/>
        </g>
    </g>

    <g id="页面-2" transform="translate(760, 260) rotate(-10)" stroke="none" stroke-width="1" fill="none"
       fill-rule="evenodd">
        <g id="sidebar_bg" fill="#DDDDDD" fill-rule="nonzero">
            <path d="M20.9192525,51.7273557 C20.8898819,51.7626827 20.8730987,51.8010092 20.8717001,51.8406687 C20.8542176,51.8406687 20.8367351,51.8400021 20.8192525,51.8400021 C20.8521197,51.8023422 20.8856861,51.7646824 20.9192525,51.7273557 Z"
                  id="路径"/>
            <path d="M71.9410506,60.0688543 C71.9377179,60.0248622 71.9340519,59.9812034 71.9303859,59.9375446 C71.6824305,57.0000733 70.9498957,54.1392549 69.7527778,51.435075 C68.5759897,48.7765536 66.9829431,46.3399921 65.0176302,44.1930453 C63.0336539,42.0257687 60.725736,40.2150946 58.1585315,38.8116806 C55.5023429,37.3596086 52.6258607,36.3771188 49.6097369,35.8918728 C46.5932799,35.4062935 43.5541603,35.4362881 40.5763629,35.9815233 C37.6982143,36.5084285 34.9390443,37.5032494 32.3748392,38.9386577 C29.834963,40.3604018 27.5577063,42.1737421 25.6063908,44.3286875 C24.9455098,45.0585561 24.327621,45.8210855 23.7553907,46.6139428 C22.8718831,47.837056 22.0956894,49.1318229 21.433142,50.488912 C21.4278097,50.4985769 21.4228106,50.5082418 21.4188113,50.5185733 C21.2285122,50.9088364 21.0475448,51.3044319 20.8765755,51.7050264 C20.8752425,51.7080259 20.8742426,51.7106921 20.8729095,51.7133583 C20.8709099,51.7180241 20.8689103,51.7226899 20.8669106,51.7273557 C20.8529131,51.7626827 20.8449146,51.8010092 20.844248,51.8406687 C20.8359162,51.8406687 20.8275844,51.8400021 20.8192525,51.8400021 C10.1135129,51.5713838 2.96246676,52.7478387 2.5505409,55.3047118 C2.13894832,57.8635846 8.56912422,61.2276457 18.8322769,64.3350864 C18.8206123,64.3744126 18.8159465,64.4160718 18.8196125,64.4593973 C19.048238,67.1672432 19.6884561,69.8101008 20.7252695,72.3253148 C20.7262693,72.327981 20.7272691,72.3303139 20.7282689,72.3326468 C20.8152533,72.5432755 20.9049038,72.7529045 20.9972205,72.9618669 C21.1728556,73.3591287 21.3578223,73.7510581 21.5524539,74.1379885 C22.6579216,76.3415918 24.0603358,78.3772254 25.7320349,80.2035634 C27.7163444,82.3711732 30.0242623,84.1818473 32.5914669,85.584928 C35.2476554,87.037 38.1238044,88.0194898 41.1402614,88.5050691 C42.5606724,88.7336946 43.9860825,88.8480074 45.4078266,88.8480074 C47.0052057,88.8480074 48.597919,88.7037 50.1733021,88.4150853 C53.0514507,87.8885134 55.810954,86.8933592 58.3751591,85.4582842 C60.914702,84.0365401 63.1919588,82.2231998 65.1432742,80.0682544 C65.2989129,79.8962853 65.4522186,79.7229832 65.6021916,79.5476814 C65.6061909,79.5433489 65.6105234,79.538683 65.6141894,79.5340172 C65.6178555,79.5300179 65.6211882,79.5260186 65.6241876,79.5220194 C65.6255207,79.520353 65.6268538,79.5190199 65.6281869,79.5170203 C67.3895366,77.4627234 68.8176128,75.1651369 69.8790884,72.6785845 C69.8960854,72.6385917 69.9047505,72.5972658 69.905417,72.5566065 C71.2835023,72.5916002 72.6029315,72.6022649 73.8567058,72.5892673 C73.7353943,72.2160011 73.6700727,71.8180727 73.6700727,71.4051471 C73.6700727,71.2138482 73.6840702,71.025882 73.7113986,70.8422484 C72.7262426,70.9099029 71.6661001,70.9542282 70.5376366,70.9745579 C71.047878,69.5068221 71.4328088,67.9797636 71.6814307,66.4333753 C71.9303859,64.8876536 72.0446986,63.3169363 72.0213695,61.7622161 C78.4038873,64.0014797 82.20387,66.283069 81.9142554,68.0804122 C81.8346031,68.5756564 81.4486726,69.0082452 80.7901244,69.3778453 C81.1570584,69.9670726 81.368687,70.6619475 81.368687,71.4051471 C81.368687,71.6547688 81.3446913,71.8990582 81.2986996,72.1356822 C85.4526185,71.5944463 87.9601672,70.5756297 88.1991242,69.0922301 C88.6103835,66.535357 82.1902058,63.1742953 71.9410506,60.0688543 Z M18.7286288,62.6343925 C12.3457778,60.3957954 8.54579509,58.1138728 8.83507635,56.3165297 C9.12469089,54.5188533 13.4489125,53.5450286 20.2120285,53.4220507 C19.7021203,54.8901198 19.3171896,56.4171782 19.0685677,57.9635666 C18.8196125,59.5096216 18.7052997,61.0803389 18.7286288,62.6343925 L18.7286288,62.6343925 Z M65.2272591,78.9811167 C60.9476961,78.9327921 52.6755184,78.6725056 44.3796783,77.4867191 C44.1970445,77.461057 44.0287415,77.5873676 44.0027462,77.7696681 C43.9764176,77.9519686 44.1030614,78.120605 44.285362,78.1466003 C52.2649256,79.2870617 60.218494,79.5756764 64.6513628,79.6403314 C58.8804015,86.0295147 50.1449739,89.2792631 41.2462423,87.8468542 C34.2245063,86.7167243 28.2139215,82.850087 24.2836289,77.3987349 C25.83335,77.8606517 27.38907,78.3005726 28.9211275,78.709499 C28.949789,78.7171642 28.9787838,78.7208303 29.0074453,78.7208303 C29.1544189,78.7208303 29.2893946,78.6225146 29.3290541,78.4735414 C29.3767122,78.2955735 29.2707313,78.1129397 29.0930966,78.0656149 C27.3047518,77.5880342 25.4830797,77.068461 23.677738,76.5208929 L23.677738,76.5208929 C23.2548141,75.879675 22.8592187,75.218794 22.4936178,74.5399161 C23.5474281,74.8688569 24.6215681,75.1931319 25.6973745,75.5060756 C25.7287022,75.515074 25.7600299,75.5194065 25.790691,75.5194065 C25.9353316,75.5194065 26.0683077,75.4247569 26.1106334,75.2791164 C26.1619575,75.1024816 26.0606424,74.9175148 25.8836743,74.8661908 C24.5969059,74.4915915 23.3124704,74.1013284 22.0633619,73.7053997 C21.9060569,73.3871237 21.7554174,73.0648483 21.6114433,72.7392403 C24.2766302,73.5927533 28.1575983,74.7585435 32.5504742,75.837016 C32.5771361,75.8436815 32.603798,75.8466809 32.6301266,75.8466809 C32.7800996,75.8466809 32.9164084,75.7450326 32.953735,75.5927266 C32.9973938,75.4140921 32.8880801,75.2337913 32.7094456,75.1897992 C28.0249555,74.0396729 23.924027,72.7892313 21.2688383,71.9283862 C20.3356729,69.6101368 19.7271158,67.1265839 19.4951575,64.5340505 C26.3579222,66.5716838 34.8530598,68.4883388 44.122058,69.9800703 C53.3910563,71.4724683 62.0581629,72.318316 69.2138748,72.5372766 C68.1843935,74.9175148 66.8333033,77.0777927 65.2272591,78.9811167 L65.2272591,78.9811167 Z M71.0232158,66.3273944 C70.7742606,67.8754491 70.3856639,69.4035074 69.8684237,70.8692435 C69.8550927,70.9072367 69.8490938,70.9458964 69.8494271,70.9838896 C63.1099735,71.0482113 54.1109267,70.305345 44.3236884,68.7299619 C34.5364501,67.1542456 25.7586968,65.0356269 19.3795117,62.8596853 C19.3918428,62.8236917 19.398175,62.785032 19.3975084,62.744706 C19.366514,61.1903191 19.4771608,59.6172689 19.7264492,58.0695475 C19.9757377,56.5218261 20.3643344,54.9934345 20.8812414,53.5273651 C20.8925727,53.4953708 20.903904,53.4637099 20.9155685,53.4317156 C23.5197664,54.3422184 31.25904,56.9297526 40.0717871,58.7637559 C40.0947829,58.7684217 40.1177788,58.7707546 40.1401081,58.7707546 C40.2947469,58.7707546 40.4333887,58.662774 40.4660494,58.505469 C40.5037093,58.3251681 40.3880635,58.1485333 40.2077626,58.1112066 C31.4476728,56.2882015 23.7523912,53.7169976 21.1481933,52.8068281 L21.1481933,52.8068281 C21.2535077,52.5332107 21.3638212,52.2612596 21.4781339,51.9929746 C21.4791338,51.990975 21.4801336,51.9889753 21.4811334,51.9866424 C21.4821332,51.9843095 21.483133,51.9823099 21.4841329,51.9799769 C21.6164424,51.6700327 21.7540843,51.3637545 21.8970585,51.0614756 C24.1176588,51.8243383 28.3615616,53.2114219 33.5729569,54.5708439 C33.6012851,54.5785092 33.6296133,54.5818419 33.657275,54.5818419 C33.8052484,54.5818419 33.9405574,54.4825265 33.9795503,54.3325535 C34.0258753,54.1545855 33.9192279,53.9726183 33.7412599,53.92596 C28.61085,52.5878675 24.4232705,51.2227799 22.1920054,50.4579176 C22.7682351,49.3151233 23.4214508,48.2293187 24.1429876,47.2045032 C26.6805308,48.0423524 30.5808288,49.2554673 35.1270105,50.4139255 C35.1546722,50.4209242 35.1823338,50.424257 35.2096623,50.424257 C35.3583022,50.424257 35.4939444,50.3239417 35.5322709,50.1729689 C35.5779293,49.9946676 35.4699487,49.8133669 35.2916475,49.7677085 C30.8824412,48.6445773 27.083125,47.4694555 24.5532471,46.6379385 C25.7303685,45.0578896 27.0734601,43.6321462 28.5501943,42.3783719 C29.6293334,42.7086458 30.7158045,43.0292547 31.7826125,43.3322002 C31.8129403,43.3408653 31.8436015,43.3448646 31.8739294,43.3448646 C32.0189033,43.3448646 32.1525459,43.2492151 32.194205,43.1025749 C32.2445293,42.9256067 32.1418811,42.7413066 31.9645797,42.6909823 C31.0417458,42.4286962 30.1035814,42.1534124 29.1684164,41.8697968 C29.563012,41.5548535 29.966606,41.2522413 30.3781986,40.9619602 C33.1803609,41.7901444 35.9588607,42.533344 38.6387117,43.172229 C38.664707,43.1785612 38.6907023,43.1815607 38.7163644,43.1815607 C38.8670039,43.1815607 39.003646,43.0785792 39.0403061,42.9252735 C39.0829651,42.7463057 38.9723183,42.5666713 38.7933505,42.5240123 C36.2921341,41.9274531 33.7039333,41.2395769 31.090737,40.4763809 C36.3727862,37.005339 42.8932792,35.4856126 49.503756,36.5497544 C56.0755731,37.607564 61.7618829,41.0626087 65.6858432,45.9707253 C63.2352843,45.8810747 60.8087211,45.7430996 58.4624768,45.5604658 C58.2788431,45.546135 58.1185387,45.6834436 58.1042079,45.866744 C58.0898772,46.0503776 58.2271858,46.2106821 58.4104861,46.2250128 C60.942697,46.4219774 63.5678911,46.5672846 66.2154146,46.6566018 C66.5186933,47.0625287 66.8099742,47.4777873 67.088924,47.901711 C63.181294,47.7937305 59.3593153,47.5667713 55.7193039,47.2271658 C55.5356702,47.2101688 55.3733661,47.3448113 55.3563692,47.5281116 C55.3393722,47.7114119 55.4740147,47.8737161 55.657315,47.890713 C59.4512988,48.2449826 63.4419138,48.4766075 67.5201797,48.579589 C68.5389963,50.2359575 69.3758457,52.0153039 70.005399,53.8899665 C67.8764489,53.8776354 64.7103521,53.8166463 61.0186833,53.6120165 C60.8343831,53.6010185 60.6777447,53.7426597 60.6677465,53.9262933 C60.657415,54.1102602 60.7980563,54.2672319 60.9820232,54.2775634 C64.8146667,54.4901918 68.0837449,54.5481813 70.2193605,54.557513 C70.5872943,55.7589634 70.8705766,56.9977404 71.0628753,58.2661788 C69.8747559,58.273844 67.7787998,58.2695115 65.107614,58.1911923 C64.9246469,58.187193 64.7700081,58.3308338 64.7646757,58.5148007 C64.7593433,58.6987676 64.9039839,58.8520733 65.0879508,58.8577389 C67.2042366,58.9197278 68.9609204,58.9353916 70.194365,58.9353916 C70.5626321,58.9353916 70.8842408,58.9340585 71.1548588,58.9320589 C71.1991841,59.2836623 71.2361775,59.6375986 71.2661721,59.9935345 C71.3121638,60.5387697 71.3411586,61.0970025 71.3524899,61.6519027 C71.3834843,63.2069561 71.2725043,64.7800063 71.0232158,66.3273944 L71.0232158,66.3273944 Z"
                  id="形状"/>
            <path d="M48.2309851,46.659268 C48.2056563,46.823905 48.0636819,46.9418838 47.9020443,46.9418838 C47.8850474,46.9418838 47.8680504,46.9405507 47.8507202,46.9378845 C47.6390916,46.9052237 47.4274631,46.8718964 47.2161678,46.8379025 L47.0641951,46.8135736 C46.1410279,46.6636006 45.1845335,46.4952975 44.2213735,46.3123304 C44.0407393,46.2780033 43.9217607,46.1033681 43.9560879,45.9227339 C43.9904151,45.7417665 44.1643837,45.6231212 44.3456844,45.6574483 C45.3031788,45.8390823 46.2536743,46.0067188 47.1711759,46.155692 L47.3214821,46.1796877 C47.5317776,46.2136815 47.7420731,46.2466756 47.9523686,46.2790031 C48.1343358,46.3073313 48.2589801,46.4773008 48.2309851,46.659268 L48.2309851,46.659268 Z"
                  id="路径"/>
            <path d="M44.7619429,56.6681331 C44.7339479,56.8304372 44.5929733,56.9447499 44.4340019,56.9447499 C44.4150053,56.9447499 44.3960087,56.9434169 44.3766789,56.9400841 C42.8482873,56.6761316 41.248242,56.3648543 39.6218681,56.014584 C39.4419005,55.9759243 39.3275877,55.7986229 39.3662474,55.6186553 C39.4049071,55.4386877 39.5822085,55.3243749 39.7621761,55.3630347 C41.379885,55.7113053 42.9705986,56.0209162 44.4903251,56.2832024 C44.6716258,56.3145301 44.7932705,56.4868324 44.7619429,56.6681331 L44.7619429,56.6681331 Z"
                  id="路径"/>
            <path d="M57.5596393,60.7433995 C57.5473082,60.9190346 57.4010012,61.0530105 57.227699,61.0530105 C57.2197005,61.0530105 57.2117019,61.0530105 57.2037033,61.0523439 C54.1842468,60.8387157 51.2757704,60.5511008 48.5589261,60.1974978 C48.3762923,60.1738354 48.2476488,60.0065322 48.2713112,59.8242316 C48.2953068,59.6415978 48.4622768,59.5126211 48.6449106,59.5366167 C51.3487572,59.8885534 54.244236,60.1748352 57.2506949,60.3874636 C57.4343285,60.4004613 57.5726369,60.5597659 57.5596393,60.7433995 L57.5596393,60.7433995 Z"
                  id="路径"/>
            <path d="M47.3338132,79.6836569 C47.3138168,79.8529598 47.1698428,79.977604 47.0032061,79.977604 C46.9902084,79.977604 46.9768775,79.9766042 46.9635466,79.9752711 C45.3058449,79.77764 43.689136,79.5530138 42.1580782,79.3077246 L42.0064388,79.2830624 C41.7234898,79.2370707 41.4355416,79.1890793 41.1499263,79.1404214 C40.9686256,79.109427 40.8466476,78.9371247 40.877642,78.755824 C40.9086364,78.57419 41.0806055,78.4522119 41.2622395,78.4835396 C41.5458551,78.5318643 41.8321369,78.5795224 42.1130863,78.6251808 L42.2633926,78.6495098 C43.7857852,78.8934658 45.3938291,79.116759 47.0425323,79.3133903 C47.2251661,79.335053 47.355476,79.5010231 47.3338132,79.6836569 L47.3338132,79.6836569 Z"
                  id="路径"/>
            <path d="M53.1610977,53.3267345 C53.1427676,53.4977037 52.9984603,53.6246809 52.8301572,53.6246809 C52.8181594,53.6246809 52.8064948,53.6240143 52.794497,53.6230145 C51.7370207,53.5103681 50.6878762,53.3863904 49.6763916,53.2547475 C49.4940911,53.2310851 49.3651143,53.0641151 49.38911,52.8814813 C49.4127724,52.6988475 49.5800756,52.5698708 49.7623761,52.5938664 C50.7688616,52.7248429 51.8126737,52.848154 52.8651509,52.9601338 C53.048118,52.9794637 53.1807608,53.1437675 53.1610977,53.3267345 L53.1610977,53.3267345 Z"
                  id="路径"/>
            <path d="M80.9520953,98.4912716 C79.498357,98.5215994 79.4736947,98.5459284 79.4433669,100 C79.413039,98.5462617 79.38871,98.5215994 77.9346384,98.4912716 C79.3883768,98.4609437 79.413039,98.4366147 79.4433669,96.9825431 C79.4576976,97.6640871 79.470362,98.0313544 79.6299999,98.2326515 C79.6306665,98.233318 79.6309998,98.2339845 79.6316663,98.2346511 C79.812967,98.4606104 80.1819006,98.4749412 80.9520953,98.4909383 L80.9520953,98.4912716 Z"
                  id="路径"/>
            <path d="M33.5649583,25.2051297 C31.6899625,25.2441227 31.6583015,25.2757837 31.6193085,27.1507795 C31.5803155,25.2757837 31.5486546,25.2441227 29.6736587,25.2051297 C31.5486546,25.1661368 31.5803155,25.1344758 31.6193085,23.25948 C31.6583015,25.1344758 31.6899625,25.1661368 33.5649583,25.2051297 Z"
                  id="路径"/>
            <path d="M99.8196991,19.5394829 C97.9447033,19.5784759 97.9130423,19.6101368 97.8740493,21.4851327 C97.8350564,19.6101368 97.8033954,19.5784759 95.9283996,19.5394829 C97.8033954,19.5004899 97.8350564,19.4688289 97.8740493,17.5938331 C97.9130423,19.4688289 97.9447033,19.5004899 99.8196991,19.5394829 Z"
                  id="路径"/>
            <path d="M71.5247922,4.84212842 C69.6497964,4.8811214 69.6181354,4.91278237 69.5791424,6.7877782 C69.5401494,4.91278237 69.5084885,4.8811214 67.6334926,4.84212842 C69.5084885,4.80313544 69.5401494,4.77147447 69.5791424,2.89647863 C69.6181354,4.77147447 69.6497964,4.80313544 71.5247922,4.84212842 Z"
                  id="路径"/>
            <path d="M79.4566978,42.0021063 C77.581702,42.0410993 77.550041,42.0727602 77.511048,43.9477561 C77.472055,42.0727602 77.4403941,42.0410993 75.5653982,42.0021063 C77.4403941,41.9631133 77.472055,41.9314523 77.511048,40.0564565 C77.550041,41.9314523 77.581702,41.9631133 79.4566978,42.0021063 Z"
                  id="路径"/>
            <path d="M8.59978537,1.10946696 C7.53064448,1.13179628 7.51264772,1.14979304 7.49031841,2.21893393 C7.4679891,1.14979304 7.44999233,1.13179628 6.38085145,1.10946696 C7.44999233,1.08713765 7.4679891,1.06914089 7.49031841,0 C7.51264772,1.06914089 7.53064448,1.08713765 8.59978537,1.10946696 Z"
                  id="路径"/>
            <path d="M14.401741,85.427623 C12.5267452,85.466616 12.4950842,85.498277 12.4560912,87.3732728 C12.4170983,85.498277 12.3854373,85.466616 10.5104415,85.427623 C12.3854373,85.38863 12.4170983,85.3569691 12.4560912,83.4819732 C12.4950842,85.3569691 12.5267452,85.38863 14.401741,85.427623 Z"
                  id="路径"/>
            <path d="M80.5355036,71.4051471 C80.5355036,71.6947616 80.494511,71.9753778 80.4175248,72.2406633 C80.0545902,73.4984369 78.8927993,74.4212708 77.5193798,74.4212708 C76.2712712,74.4212708 75.1977977,73.6590747 74.7398802,72.5759363 C74.5875742,72.2160011 74.5032561,71.8200724 74.5032561,71.4051471 C74.5032561,71.1895192 74.5259187,70.9788905 74.5695775,70.775927 C74.8595253,69.4138388 76.0719737,68.3890233 77.5193798,68.3890233 C78.5638585,68.3890233 79.4860258,68.9229272 80.0272618,69.7317816 C80.348204,70.2106954 80.5355036,70.7865917 80.5355036,71.4051471 Z"
                  id="路径"/>
        </g>
    </g>

    <g id="页面-3" transform="translate(1100, 380) rotate(-30)" stroke="none" stroke-width="1" fill="none"
       fill-rule="evenodd">
        <g id="sidebar_bg" fill="#DDDDDD" fill-rule="nonzero">
            <path d="M41.7385051,103.454711 C41.7091344,103.525365 41.6923512,103.602018 41.6909526,103.681337 C41.6734701,103.681337 41.6559876,103.680004 41.6385051,103.680004 C41.6713722,103.604684 41.7049386,103.529365 41.7385051,103.454711 Z"
                  id="路径"/>
            <path d="M143.882101,120.137709 C143.875436,120.049724 143.868104,119.962407 143.860772,119.875089 C143.364861,114.000147 141.899791,108.27851 139.505556,102.87015 C137.151979,97.5531071 133.965886,92.6799843 130.03526,88.3860905 C126.067308,84.0515374 121.451472,80.4301892 116.317063,77.6233611 C111.004686,74.7192172 105.251721,72.7542376 99.2194738,71.7837456 C93.1865598,70.8125871 87.1083205,70.8725763 81.1527258,71.9630467 C75.3964286,73.016857 69.8780886,75.0064988 64.7496784,77.8773154 C59.6699261,80.7208036 55.1154126,84.3474841 51.2127817,88.657375 C49.8910196,90.1171123 48.6552421,91.6421711 47.5107814,93.2278856 C45.7437661,95.674112 44.1913789,98.2636459 42.8662841,100.977824 C42.8556193,100.997154 42.8456211,101.016484 42.8376226,101.037147 C42.4570244,101.817673 42.0950896,102.608864 41.7531511,103.410053 C41.7504849,103.416052 41.7484853,103.421384 41.7458191,103.426717 C41.7418198,103.436048 41.7378205,103.44538 41.7338212,103.454711 C41.7058263,103.525365 41.6898292,103.602018 41.6884961,103.681337 C41.6718324,103.681337 41.6551687,103.680004 41.6385051,103.680004 C20.2270258,103.142768 5.92493351,105.495677 5.10108181,110.609424 C4.27789665,115.727169 17.1382484,122.455291 37.6645537,128.670173 C37.6412246,128.748825 37.6318929,128.832144 37.6392249,128.918795 C38.096476,134.334486 39.3769122,139.620202 41.4505389,144.65063 C41.4525385,144.655962 41.4545382,144.660628 41.4565378,144.665294 C41.6305065,145.086551 41.8098076,145.505809 41.994441,145.923734 C42.3457111,146.718257 42.7156445,147.502116 43.1049078,148.275977 C45.3158431,152.683184 48.1206716,156.754451 51.4640698,160.407127 C55.4326888,164.742346 60.0485246,168.363695 65.1829337,171.169856 C70.4953108,174.074 76.2476088,176.03898 82.2805228,177.010138 C85.1213448,177.467389 87.972165,177.696015 90.8156532,177.696015 C94.0104115,177.696015 97.1958381,177.4074 100.346604,176.830171 C106.102901,175.777027 111.621908,173.786718 116.750318,170.916568 C121.829404,168.07308 126.383918,164.4464 130.286548,160.136509 C130.597826,159.792571 130.904437,159.445966 131.204383,159.095363 C131.212382,159.086698 131.221047,159.077366 131.228379,159.068034 C131.235711,159.060036 131.242376,159.052037 131.248375,159.044039 C131.251041,159.040706 131.253708,159.03804 131.256374,159.034041 C134.779073,154.925447 137.635226,150.330274 139.758177,145.357169 C139.792171,145.277183 139.809501,145.194532 139.810834,145.113213 C142.567005,145.1832 145.205863,145.20453 147.713412,145.178535 C147.470789,144.432002 147.340145,143.636145 147.340145,142.810294 C147.340145,142.427696 147.36814,142.051764 147.422797,141.684497 C145.452485,141.819806 143.3322,141.908456 141.075273,141.949116 C142.095756,139.013644 142.865618,135.959527 143.362861,132.866751 C143.860772,129.775307 144.089397,126.633873 144.042739,123.524432 C156.807775,128.002959 164.40774,132.566138 163.828511,136.160824 C163.669206,137.151313 162.897345,138.01649 161.580249,138.755691 C162.314117,139.934145 162.737374,141.323895 162.737374,142.810294 C162.737374,143.309538 162.689383,143.798116 162.597399,144.271364 C170.905237,143.188893 175.920334,141.151259 176.398248,138.18446 C177.220767,133.070714 164.380412,126.348591 143.882101,120.137709 Z M37.4572577,125.268785 C24.6915555,120.791591 17.0915902,116.227746 17.6701527,112.633059 C18.2493818,109.037707 26.8978251,107.090057 40.424057,106.844101 C39.4042406,109.78024 38.6343791,112.834356 38.1371353,115.927133 C37.6392249,119.019243 37.4105994,122.160678 37.4572577,125.268785 L37.4572577,125.268785 Z M130.454518,157.962233 C121.895392,157.865584 105.351037,157.345011 88.7593566,154.973438 C88.3940891,154.922114 88.057483,155.174735 88.0054923,155.539336 C87.9528352,155.903937 88.2061229,156.24121 88.5707239,156.293201 C104.529851,158.574123 120.436988,159.151353 129.302726,159.280663 C117.760803,172.059029 100.289948,178.558526 82.4924847,175.693708 C68.4490125,173.433449 56.427843,165.700174 48.5672579,154.79747 C51.6667,155.721303 54.7781399,156.601145 57.8422551,157.418998 C57.8995781,157.434328 57.9575676,157.441661 58.0148907,157.441661 C58.3088377,157.441661 58.5787892,157.245029 58.6581082,156.947083 C58.7534244,156.591147 58.5414625,156.225879 58.1861932,156.13123 C54.6095036,155.176068 50.9661594,154.136922 47.355476,153.041786 L47.355476,153.041786 C46.5096283,151.75935 45.7184373,150.437588 44.9872356,149.079832 C47.0948563,149.737714 49.2431362,150.386264 51.3947489,151.012151 C51.4574043,151.030148 51.5200597,151.038813 51.581382,151.038813 C51.8706633,151.038813 52.1366154,150.849514 52.2212668,150.558233 C52.323915,150.204963 52.1212848,149.83503 51.7673485,149.732382 C49.1938118,148.983183 46.6249408,148.202657 44.1267239,147.410799 C43.8121138,146.774247 43.5108347,146.129697 43.2228865,145.478481 C48.5532604,147.185507 56.3151966,149.517087 65.1009485,151.674032 C65.1542722,151.687363 65.207596,151.693362 65.2602532,151.693362 C65.5601992,151.693362 65.8328168,151.490065 65.90747,151.185453 C65.9947876,150.828184 65.7761603,150.467583 65.4188913,150.379598 C56.049911,148.079346 47.848054,145.578463 42.5376766,143.856772 C40.6713458,139.220274 39.4542316,134.253168 38.9903151,129.068101 C52.7158445,133.143368 69.7061196,136.976678 88.2441161,139.960141 C106.782113,142.944937 124.116326,144.636632 138.42775,145.074553 C136.368787,149.83503 133.666607,154.155585 130.454518,157.962233 L130.454518,157.962233 Z M142.046432,132.654789 C141.548521,135.750898 140.771328,138.807015 139.736847,141.738487 C139.710185,141.814473 139.698188,141.891793 139.698854,141.967779 C126.219947,142.096423 108.221853,140.61069 88.6473768,137.459924 C69.0729002,134.308491 51.5173935,130.071254 38.7590234,125.719371 C38.7836856,125.647383 38.79635,125.570064 38.7950169,125.489412 C38.7330281,122.380638 38.9543216,119.234538 39.4528985,116.139095 C39.9514754,113.043652 40.7286688,109.986869 41.7624828,107.05473 C41.7851453,106.990742 41.8078079,106.92742 41.8311371,106.863431 C47.0395329,108.684437 62.5180801,113.859505 80.1435742,117.527512 C80.1895659,117.536843 80.2355576,117.541509 80.2802162,117.541509 C80.5894939,117.541509 80.8667773,117.325548 80.9320989,117.010938 C81.0074187,116.650336 80.776127,116.297067 80.4155252,116.222413 C62.8953455,112.576403 47.5047825,107.433995 42.2963867,105.613656 L42.2963867,105.613656 C42.5070154,105.066421 42.7276424,104.522519 42.9562679,103.985949 C42.9582675,103.98195 42.9602672,103.977951 42.9622668,103.973285 C42.9642664,103.968619 42.9662661,103.96462 42.9682657,103.959954 C43.2328847,103.340065 43.5081685,102.727509 43.7941171,102.122951 C48.2353176,103.648677 56.7231232,106.422844 67.1459137,109.141688 C67.2025702,109.157018 67.2592267,109.163684 67.31455,109.163684 C67.6104968,109.163684 67.8811147,108.965053 67.9591007,108.665107 C68.0517507,108.309171 67.8384557,107.945237 67.4825198,107.85192 C57.2217001,105.175735 48.846541,102.44556 44.3840109,100.915835 C45.5364701,98.6302466 46.8429016,96.4586374 48.2859752,94.4090064 C53.3610617,96.0847048 61.1616576,98.5109347 70.2540209,100.827851 C70.3093443,100.841848 70.3646677,100.848514 70.4193245,100.848514 C70.7166043,100.848514 70.9878888,100.647883 71.0645417,100.345938 C71.1558586,99.9893353 70.9398975,99.6267339 70.583295,99.535417 C61.7648823,97.2891546 54.1662501,94.938911 49.1064942,93.275877 C51.4607371,90.1157792 54.1469202,87.2642924 57.1003886,84.7567438 C59.2586668,85.4172916 61.431609,86.0585095 63.5652249,86.6644004 C63.6258807,86.6817306 63.687203,86.6897292 63.7478587,86.6897292 C64.0378065,86.6897292 64.3050918,86.4984303 64.3884101,86.2051497 C64.4890586,85.8512134 64.2837623,85.4826131 63.9291594,85.3819646 C62.0834916,84.8573923 60.2071627,84.3068248 58.3368327,83.7395935 C59.126024,83.1097069 59.933212,82.5044825 60.7563972,81.9239204 C66.3607217,83.5802889 71.9177215,85.066688 77.2774234,86.344458 C77.329414,86.3571224 77.3814047,86.3631213 77.4327288,86.3631213 C77.7340079,86.3631213 78.007292,86.1571584 78.0806122,85.8505469 C78.1659301,85.4926113 77.9446366,85.1333427 77.5867011,85.0480247 C72.5842682,83.8549061 67.4078666,82.4791538 62.181474,80.9527618 C72.7455725,74.0106781 85.7865584,70.9712252 99.007512,73.0995088 C112.151146,75.2151279 123.523766,82.1252175 131.371686,91.9414505 C126.470569,91.7621495 121.617442,91.4861992 116.924954,91.1209316 C116.557686,91.0922701 116.237077,91.3668873 116.208416,91.733488 C116.179754,92.1007552 116.454372,92.4213642 116.820972,92.4500257 C121.885394,92.8439548 127.135782,93.1345691 132.430829,93.3132036 C133.037387,94.1250575 133.619948,94.9555747 134.177848,95.8034221 C126.362588,95.5874609 118.718631,95.1335426 111.438608,94.4543316 C111.07134,94.4203377 110.746732,94.6896225 110.712738,95.0562232 C110.678744,95.4228239 110.948029,95.7474321 111.31463,95.781426 C118.902598,96.4899651 126.883828,96.9532151 135.040359,97.159178 C137.077993,100.471915 138.751691,104.030608 140.010798,107.779933 C135.752898,107.755271 129.420704,107.633293 122.037367,107.224033 C121.668766,107.202037 121.355489,107.485319 121.335493,107.852587 C121.31483,108.22052 121.596113,108.534464 121.964046,108.555127 C129.629333,108.980384 136.16749,109.096363 140.438721,109.115026 C141.174589,111.517927 141.741153,113.995481 142.125751,116.532358 C139.749512,116.547688 135.5576,116.539023 130.215228,116.382385 C129.849294,116.374386 129.540016,116.661668 129.529351,117.029601 C129.518687,117.397535 129.807968,117.704147 130.175902,117.715478 C134.408473,117.839456 137.921841,117.870783 140.38873,117.870783 C141.125264,117.870783 141.768482,117.868117 142.309718,117.864118 C142.398368,118.567325 142.472355,119.275197 142.532344,119.987069 C142.624328,121.077539 142.682317,122.194005 142.70498,123.303805 C142.766969,126.413912 142.545009,129.560013 142.046432,132.654789 L142.046432,132.654789 Z"
                  id="形状"/>
            <path d="M96.4619702,93.318536 C96.4113126,93.6478101 96.1273637,93.8837676 95.8040886,93.8837676 C95.7700947,93.8837676 95.7361008,93.8811014 95.7014404,93.875769 C95.2781833,93.8104475 94.8549261,93.7437928 94.4323355,93.675805 L94.1283902,93.6271471 C92.2820559,93.3272011 90.3690669,92.990595 88.442747,92.6246609 C88.0814787,92.5560066 87.8435215,92.2067361 87.9121758,91.8454678 C87.9808301,91.483533 88.3287675,91.2462423 88.6913689,91.3148967 C90.6063575,91.6781646 92.5073487,92.0134376 94.3423517,92.311384 L94.6429643,92.3593753 C95.0635552,92.4273631 95.4841462,92.4933512 95.9047371,92.5580062 C96.2686716,92.6146627 96.5179601,92.9546015 96.4619702,93.318536 L96.4619702,93.318536 Z"
                  id="路径"/>
            <path d="M89.5238857,113.336266 C89.4678958,113.660874 89.1859465,113.8895 88.8680038,113.8895 C88.8300106,113.8895 88.7920174,113.886834 88.7533577,113.880168 C85.6965746,113.352263 82.496484,112.729709 79.2437361,112.029168 C78.8838009,111.951849 78.6551754,111.597246 78.7324948,111.237311 C78.8098142,110.877375 79.1644171,110.64875 79.5243523,110.726069 C82.7597699,111.422611 85.9411973,112.041832 88.9806501,112.566405 C89.3432515,112.62906 89.5865411,112.973665 89.5238857,113.336266 L89.5238857,113.336266 Z"
                  id="路径"/>
            <path d="M115.119279,121.486799 C115.094616,121.838069 114.802002,122.106021 114.455398,122.106021 C114.439401,122.106021 114.423404,122.106021 114.407407,122.104688 C108.368494,121.677431 102.551541,121.102202 97.1178521,120.394996 C96.7525845,120.347671 96.4952975,120.013064 96.5426223,119.648463 C96.5906137,119.283196 96.9245536,119.025242 97.2898212,119.073233 C102.697514,119.777107 108.488472,120.34967 114.50139,120.774927 C114.868657,120.800923 115.145274,121.119532 115.119279,121.486799 L115.119279,121.486799 Z"
                  id="路径"/>
            <path d="M94.6676265,159.367314 C94.6276337,159.70592 94.3396855,159.955208 94.0064122,159.955208 C93.9804169,159.955208 93.953755,159.953208 93.9270931,159.950542 C90.6116899,159.55528 87.3782719,159.106028 84.3161564,158.615449 L84.0128777,158.566125 C83.4469795,158.474141 82.8710832,158.378159 82.2998527,158.280843 C81.9372513,158.218854 81.6932952,157.874249 81.755284,157.511648 C81.8172729,157.14838 82.161211,156.904424 82.5244789,156.967079 C83.0917102,157.063729 83.6642738,157.159045 84.2261726,157.250362 L84.5267852,157.29902 C87.5715705,157.786932 90.7876582,158.233518 94.0850647,158.626781 C94.4503323,158.670106 94.710952,159.002046 94.6676265,159.367314 L94.6676265,159.367314 Z"
                  id="路径"/>
            <path d="M106.322195,106.653469 C106.285535,106.995407 105.996921,107.249362 105.660314,107.249362 C105.636319,107.249362 105.61299,107.248029 105.588994,107.246029 C103.474041,107.020736 101.375752,106.772781 99.3527832,106.509495 C98.9881821,106.46217 98.7302286,106.12823 98.7782199,105.762963 C98.8255447,105.397695 99.1601512,105.139742 99.5247522,105.187733 C101.537723,105.449686 103.625347,105.696308 105.730302,105.920268 C106.096236,105.958927 106.361522,106.287535 106.322195,106.653469 L106.322195,106.653469 Z"
                  id="路径"/>
            <path d="M161.904191,196.982543 C158.996714,197.043199 158.947389,197.091857 158.886734,200 C158.826078,197.092523 158.77742,197.043199 155.869277,196.982543 C158.776754,196.921887 158.826078,196.873229 158.886734,193.965086 C158.915395,195.328174 158.940724,196.062709 159.26,196.465303 C159.261333,196.466636 159.262,196.467969 159.263333,196.469302 C159.625934,196.921221 160.363801,196.949882 161.904191,196.981877 L161.904191,196.982543 Z"
                  id="路径"/>
            <path d="M67.1299166,50.4102595 C63.3799249,50.4882454 63.316603,50.5515674 63.238617,54.3015591 C63.1606311,50.5515674 63.0973092,50.4882454 59.3473175,50.4102595 C63.0973092,50.3322735 63.1606311,50.2689516 63.238617,46.5189599 C63.316603,50.2689516 63.3799249,50.3322735 67.1299166,50.4102595 Z"
                  id="路径"/>
            <path d="M199.639398,39.0789658 C195.889407,39.1569517 195.826085,39.2202737 195.748099,42.9702654 C195.670113,39.2202737 195.606791,39.1569517 191.856799,39.0789658 C195.606791,39.0009798 195.670113,38.9376579 195.748099,35.1876662 C195.826085,38.9376579 195.889407,39.0009798 199.639398,39.0789658 Z"
                  id="路径"/>
            <path d="M143.049584,9.68425683 C139.299593,9.7622428 139.236271,9.82556473 139.158285,13.5755564 C139.080299,9.82556473 139.016977,9.7622428 135.266985,9.68425683 C139.016977,9.60627087 139.080299,9.54294894 139.158285,5.79295727 C139.236271,9.54294894 139.299593,9.60627087 143.049584,9.68425683 Z"
                  id="路径"/>
            <path d="M158.913396,84.0042126 C155.163404,84.0821985 155.100082,84.1455205 155.022096,87.8955121 C154.94411,84.1455205 154.880788,84.0821985 151.130796,84.0042126 C154.880788,83.9262266 154.94411,83.8629047 155.022096,80.112913 C155.100082,83.8629047 155.163404,83.9262266 158.913396,84.0042126 Z"
                  id="路径"/>
            <path d="M17.1995707,2.21893393 C15.061289,2.26359255 15.0252954,2.29958607 14.9806368,4.43786785 C14.9359782,2.29958607 14.8999847,2.26359255 12.7617029,2.21893393 C14.8999847,2.1742753 14.9359782,2.13828178 14.9806368,0 C15.0252954,2.13828178 15.061289,2.1742753 17.1995707,2.21893393 Z"
                  id="路径"/>
            <path d="M28.803482,170.855246 C25.0534904,170.933232 24.9901684,170.996554 24.9121825,174.746546 C24.8341965,170.996554 24.7708746,170.933232 21.0208829,170.855246 C24.7708746,170.77726 24.8341965,170.713938 24.9121825,166.963946 C24.9901684,170.713938 25.0534904,170.77726 28.803482,170.855246 Z"
                  id="路径"/>
            <path d="M161.071007,142.810294 C161.071007,143.389523 160.989022,143.950756 160.83505,144.481327 C160.10918,146.996874 157.785599,148.842542 155.03876,148.842542 C152.542542,148.842542 150.395595,147.318149 149.47976,145.151873 C149.175148,144.432002 149.006512,143.640145 149.006512,142.810294 C149.006512,142.379038 149.051837,141.957781 149.139155,141.551854 C149.719051,138.827678 152.143947,136.778047 155.03876,136.778047 C157.127717,136.778047 158.972052,137.845854 160.054524,139.463563 C160.696408,140.421391 161.071007,141.573183 161.071007,142.810294 Z"
                  id="路径"/>
        </g>
    </g>


    <g id="页面-1">
        <g id="sidebar_bg" transform="translate(0, -260)" fill="#DDDDDD" fill-rule="nonzero">
            <path d="M1006.94875,756.153892 C950.698874,757.323682 949.749045,758.273511 948.579256,814.523386 C947.409466,758.273511 946.459637,757.323682 890.209762,756.153892 C946.459637,754.984103 947.409466,754.034274 948.579256,697.784399 C949.749045,754.034274 950.698874,754.984103 1006.94875,756.153892 Z"
                  id="路径"/>
        </g>
    </g>

    <circle cx="600" cy="250" r="20" fill="#DDDDDD">
    </circle>

    <circle cx="600" cy="500" r="15" fill="#DDDDDD">
    </circle>

    <circle cx="1111" cy="300" r="15" fill="#DDDDDD">
    </circle>

    <circle cx="860" cy="100" r="8" fill="#DDDDDD">
    </circle>

    <circle cx="1200" cy="100" r="6" fill="#DDDDDD">
    </circle>

    <circle cx="560" cy="50" r="5" fill="#DDDDDD">
    </circle>

    <circle cx="430" cy="600" r="5" fill="#DDDDDD">
    </circle>

    <text transform="rotate(30, 1100 360)" font-size="66" fill="#00FF00" font-weight="bold"
          stroke-width="3">
        <tspan x="860" y="460">
            get() 解析
        </tspan>
    </text>

    <text font-size="66" fill="#00FFFF" font-weight="bold">
        <tspan x="200" y="380">
            HashMap
        </tspan>
    </text>

    <text font-size="66" fill="#ff6b81" font-weight="bold">
        <tspan x="600" y="420">
            Java 8
        </tspan>
    </text>
</svg>
