<?xml version='1.0' encoding='utf-8'?>
<svg xmlns="http://www.w3.org/2000/svg" width="980px" height="1016px" version="1.1" style="shape-rendering:geometricPrecision; text-rendering:geometricPrecision; image-rendering:optimizeQuality; fill-rule:evenodd; clip-rule:evenodd" viewBox="0 0 1822 1889"> <defs> <style type="text/css">  .fil244 {fill:#FEFEFE} .fil245 {fill:#FEFEFE} .fil248 {fill:#D9DADA} .fil243 {fill:#FEFEFE} .fil242 {fill:#FEFEFC} .fil241 {fill:#FDFDFC} .fil240 {fill:#FCFDFA} .fil239 {fill:#FBFDF9} .fil238 {fill:#FBFCF7} .fil237 {fill:#FBFCF6} .fil236 {fill:#FAFBF5} .fil235 {fill:#F9FBF3} .fil234 {fill:#F9FAF1} .fil233 {fill:#F8FAF0} .fil232 {fill:#F7F9EE} .fil231 {fill:#F6F9ED} .fil230 {fill:#F6F8EB} .fil229 {fill:#F5F8EA} .fil228 {fill:#F4F8E8} .fil227 {fill:#F3F7E8} .fil226 {fill:#F3F7E6} .fil225 {fill:#F2F6E5} .fil224 {fill:#F1F6E4} .fil223 {fill:#F0F5E2} .fil222 {fill:#F0F5E1} .fil221 {fill:#F0F5E0} .fil220 {fill:#EFF4DF} .fil219 {fill:#EEF4DD} .fil218 {fill:#EDF3DC} .fil217 {fill:#EDF3DB} .fil216 {fill:#ECF2D9} .fil215 {fill:#EAF1D8} .fil214 {fill:#EAF0D6} .fil213 {fill:#E9F0D4} .fil212 {fill:#E7EFD2} .fil211 {fill:#E7EFD1} .fil210 {fill:#E6EECF} .fil209 {fill:#E4EDCE} .fil208 {fill:#E3ECCC} .fil207 {fill:#E2ECCA} .fil206 {fill:#E0EBC9} .fil205 {fill:#DFEAC7} .fil204 {fill:#DDE9C6} .fil203 {fill:#DCE8C5} .fil202 {fill:#DBE8C4} .fil201 {fill:#D8E7C4} .fil200 {fill:#D7E6C4} .fil199 {fill:#D4E4C3} .fil198 {fill:#D2E3C3} .fil197 {fill:#D0E2C4} .fil196 {fill:#CFE1C3} .fil195 {fill:#CEE1C3} .fil194 {fill:#CCDFC3} .fil193 {fill:#CBDEC3} .fil192 {fill:#C9DDC3} .fil191 {fill:#C8DDC3} .fil190 {fill:#C7DCC3} .fil189 {fill:#C6DCC3} .fil188 {fill:#C5DBC2} .fil187 {fill:#C4DAC3} .fil186 {fill:#C4D9C3} .fil185 {fill:#C3D8C2} .fil184 {fill:#C2D8C2} .fil183 {fill:#C1D7C3} .fil182 {fill:#BFD6C2} .fil181 {fill:#BED5C2} .fil180 {fill:#BDD5C2} .fil179 {fill:#BBD4C2} .fil178 {fill:#BAD3C2} .fil177 {fill:#B8D1C2} .fil176 {fill:#B6D0C2} .fil175 {fill:#B5CFC1} .fil174 {fill:#B3CEC1} .fil173 {fill:#B1CCC1} .fil172 {fill:#AFCBC1} .fil131 {fill:#A5AB90} .fil130 {fill:#A4AA8E} .fil129 {fill:#A4A98D} .fil133 {fill:#A5AE97} .fil132 {fill:#A5AD94} .fil128 {fill:#A2A88B} .fil127 {fill:#A2A78A} .fil171 {fill:#ADCAC1} .fil134 {fill:#A4AF99} .fil126 {fill:#A1A689} .fil125 {fill:#A0A588} .fil170 {fill:#ACC9C1} .fil135 {fill:#A4B09C} .fil124 {fill:#9FA487} .fil136 {fill:#A3B19F} .fil123 {fill:#9EA386} .fil169 {fill:#AAC8C1} .fil137 {fill:#A2B1A2} .fil122 {fill:#9DA285} .fil168 {fill:#A9C7C1} .fil138 {fill:#A2B2A3} .fil121 {fill:#9CA185} .fil120 {fill:#9BA084} .fil166 {fill:#A7C6C1} .fil167 {fill:#A8C6C0} .fil140 {fill:#A1B3A7} .fil139 {fill:#A1B3A6} .fil119 {fill:#9A9F83} .fil165 {fill:#A6C5C0} .fil141 {fill:#A0B4A9} .fil118 {fill:#999F82} .fil163 {fill:#A5C4C0} .fil164 {fill:#A5C4C0} .fil143 {fill:#9FB5AC} .fil142 {fill:#A0B4AB} .fil117 {fill:#989D82} .fil162 {fill:#A4C4C0} .fil161 {fill:#A3C3C0} .fil144 {fill:#9FB5AF} .fil116 {fill:#979D82} .fil115 {fill:#979C81} .fil160 {fill:#A2C2C0} .fil159 {fill:#A2C2C0} .fil145 {fill:#9EB6B0} .fil114 {fill:#959C80} .fil158 {fill:#A1C2C0} .fil157 {fill:#A0C1BF} .fil146 {fill:#9DB7B3} .fil113 {fill:#949B80} .fil156 {fill:#9FC0BF} .fil147 {fill:#9DB8B5} .fil112 {fill:#939A80} .fil111 {fill:#939A7F} .fil155 {fill:#9EBFBE} .fil154 {fill:#9EBEBE} .fil153 {fill:#9DBDBE} .fil149 {fill:#9CB9B9} .fil148 {fill:#9BB8B7} .fil110 {fill:#92997F} .fil152 {fill:#9CBCBD} .fil151 {fill:#9BBBBC} .fil150 {fill:#9BBABB} .fil109 {fill:#91987E} .fil108 {fill:#90977E} .fil107 {fill:#8F977E} .fil106 {fill:#8F977D} .fil105 {fill:#8D967C} .fil104 {fill:#8C957C} .fil103 {fill:#8B947C} .fil102 {fill:#8B947B} .fil101 {fill:#8A937B} .fil100 {fill:#89927A} .fil99 {fill:#88927A} .fil98 {fill:#88917A} .fil97 {fill:#869079} .fil96 {fill:#869079} .fil95 {fill:#848F79} .fil94 {fill:#848F79} .fil46 {fill:#889EA7} .fil48 {fill:#889EA6} .fil49 {fill:#889DA5} .fil50 {fill:#889DA4} .fil51 {fill:#889CA2} .fil52 {fill:#889CA1} .fil53 {fill:#889BA0} .fil54 {fill:#879B9F} .fil93 {fill:#828E78} .fil92 {fill:#828E78} .fil45 {fill:#879DA5} .fil44 {fill:#879CA5} .fil43 {fill:#879CA4} .fil55 {fill:#879A9D} .fil56 {fill:#869A9C} .fil57 {fill:#86999A} .fil58 {fill:#86999A} .fil59 {fill:#869898} .fil60 {fill:#869897} .fil61 {fill:#859796} .fil62 {fill:#859794} .fil63 {fill:#859693} .fil64 {fill:#859692} .fil65 {fill:#859691} .fil66 {fill:#859590} .fil67 {fill:#85958F} .fil91 {fill:#818D77} .fil42 {fill:#869CA3} .fil41 {fill:#869BA3} .fil68 {fill:#83948E} .fil69 {fill:#84948D} .fil70 {fill:#83938C} .fil71 {fill:#83938A} .fil72 {fill:#839389} .fil73 {fill:#839288} .fil74 {fill:#839287} .fil75 {fill:#839286} .fil76 {fill:#829185} .fil77 {fill:#829184} .fil78 {fill:#829082} .fil79 {fill:#829081} .fil80 {fill:#829080} .fil81 {fill:#818F7F} .fil90 {fill:#808D77} .fil89 {fill:#808C77} .fil40 {fill:#849AA2} .fil82 {fill:#808E7D} .fil83 {fill:#808E7C} .fil84 {fill:#808D7B} .fil85 {fill:#7F8D79} .fil86 {fill:#7F8C79} .fil87 {fill:#7F8C77} .fil88 {fill:#7F8C77} .fil39 {fill:#8499A1} .fil38 {fill:#8399A0} .fil37 {fill:#82989F} .fil36 {fill:#82979E} .fil35 {fill:#81979D} .fil34 {fill:#81969C} .fil33 {fill:#7F959B} .fil32 {fill:#7E959B} .fil31 {fill:#7E949A} .fil30 {fill:#7D9399} .fil29 {fill:#7D9398} .fil28 {fill:#7C9297} .fil27 {fill:#7B9196} .fil26 {fill:#7B9196} .fil25 {fill:#7A9095} .fil24 {fill:#798F94} .fil23 {fill:#798F93} .fil22 {fill:#788E92} .fil21 {fill:#778D91} .fil20 {fill:#778D90} .fil19 {fill:#768D90} .fil18 {fill:#758B8F} .fil17 {fill:#758B8E} .fil16 {fill:#748B8D} .fil15 {fill:#748A8D} .fil14 {fill:#73898C} .fil13 {fill:#72898B} .fil12 {fill:#72888A} .fil11 {fill:#71888A} .fil10 {fill:#718789} .fil9 {fill:#6F8688} .fil8 {fill:#6F8687} .fil7 {fill:#6E8586} .fil6 {fill:#6D8485} .fil5 {fill:#6D8384} .fil4 {fill:#6C8384} .fil3 {fill:#6C8383} .fil2 {fill:#6C8282} .fil1 {fill:#6B8181} .fil246 {fill:#6B8181} .fil47 {fill:#889DA6} .fil247 {fill:black} .fil250 {fill:#C5C6C6;fill-opacity:0.501961} .fil251 {fill:#C5C6C6;fill-opacity:0.658824} .fil0 {fill:url(#id1)} .fil249 {fill:url(#id2)}  </style> <clipPath id="id0"> <path d="M628 215c135,-176 512,-144 608,81 77,180 90,453 -125,540 -200,80 -506,42 -574,-194 -42,-147 -18,-287 76,-407 5,-7 10,-13 15,-20zm521 1573c-61,47 -154,-71 -150,-73 0,0 70,4 89,0 27,-5 88,-11 83,36 -2,15 -12,26 -22,37zm-870 -963c52,-42 106,-11 95,-83 -12,-76 102,105 18,191 -36,38 -40,-5 -27,-41 28,-83 -88,-89 -66,-38 9,20 93,16 35,40 -6,3 31,13 2,32 -24,16 -92,-49 -63,-92l6 -9zm928 971c-29,152 -228,45 -236,-79 -1,-19 44,44 60,57 141,121 164,-85 176,-4 1,10 1,17 0,26zm-216 -248c12,11 128,-24 149,-39 21,-14 36,95 -120,70 -49,-7 -94,-59 -33,-66 16,-1 126,-26 125,-36 -1,0 -64,15 -72,16 -34,7 -96,48 -90,-39 0,0 55,9 62,9 65,-2 72,-12 120,-40 12,-7 32,77 -15,92 -43,14 -81,22 -126,33zm187 152c19,58 -60,-22 -18,-20 9,0 15,13 18,20zm-583 74c-54,-56 0,-135 9,-106 13,45 10,103 86,83 86,-21 149,-177 122,-75 -29,109 -118,174 -217,98zm123 -50c-79,45 -86,-18 -110,-79 -2,-7 -6,-41 20,-11 48,56 222,1 103,81l-13 9zm391 -135c24,-5 62,-22 49,25 -4,16 -36,30 -44,41 10,7 71,-61 41,-1 -34,70 -216,63 -183,-25 11,-27 -25,-21 33,-13 29,4 125,-8 38,-6 -4,1 -85,-3 -63,-17 1,-1 95,2 125,-3l4 -1zm-443 -24c0,0 -46,-26 -35,-62 1,-4 59,23 85,26 4,0 115,-5 85,13 -3,2 -95,24 -30,15 36,-5 37,-11 46,19 26,94 -181,88 -186,29 17,-7 -18,-55 2,-55 5,0 22,12 33,15zm-17 -216c40,22 28,25 83,42 33,10 62,14 96,21 9,24 7,87 -30,97 -45,12 -155,11 -162,-52 -5,-51 -3,-14 70,6 2,0 41,17 17,0 -36,-26 -110,4 -79,-108l3 -6 2 0zm43 -181c8,-7 15,22 25,36 40,59 149,111 121,170 -23,46 -183,-26 -186,-51 -3,-23 29,-137 40,-155zm250 223c-3,-76 -11,-41 51,-81 16,-11 117,-77 123,-42 6,40 -3,34 12,82 23,69 -32,86 -91,96 -56,9 -90,5 -95,-55zm355 -172c25,-34 4,87 3,87 -11,16 -24,-30 -25,20 -2,75 -27,12 -32,10 -19,16 -19,57 -35,-3 -14,-51 -8,48 -29,29 -34,-30 -15,-114 -37,-30 -31,7 -9,-105 5,-107 10,-2 114,33 150,-6zm-79 7c-50,-1 -91,-24 -13,-19 10,1 127,0 50,17 -13,3 -23,3 -37,2zm-120 -35c35,-22 14,40 12,42 -9,9 -92,37 -135,73 -22,18 -114,13 -141,-9 -73,-57 -70,-41 -122,-118 -11,-17 52,21 63,25 93,37 235,40 323,-13zm-106 -44c41,14 124,-47 127,-31 8,57 -28,68 -78,82 -106,32 -229,25 -323,-39 -19,-13 -49,-59 -3,-42 73,27 167,30 243,24 13,-1 23,2 34,6zm38 -120c57,5 52,80 34,89 -20,10 -111,36 -108,-3 4,-58 2,-88 74,-86zm-214 -2c5,0 188,2 156,11 -23,7 -179,-1 -182,0 4,17 12,-15 13,43 0,47 34,37 37,19 2,-18 -4,-19 6,-28 9,-8 -32,-21 -15,14 8,15 -15,39 -15,-27 0,-17 68,1 100,-8 40,-12 28,75 23,77 -12,7 -254,8 -244,-54 8,-47 82,-47 121,-47zm-145 -44c35,68 4,136 -4,26 0,-8 -1,-20 4,-26zm288 -47c13,-1 43,-4 31,20 -6,10 -81,11 -60,-15 5,-6 21,-5 29,-5zm-200 -28c28,7 150,24 155,26 -9,17 -165,5 -191,-33 -6,-9 34,6 36,7zm-306 -36c14,32 -25,145 -56,108 -11,-13 43,-110 47,-112 4,-2 7,1 9,4zm735 -1c17,37 43,67 64,116 24,56 19,57 -59,77 -116,29 25,8 75,-19 9,-5 20,37 5,48 -15,11 -50,35 -8,15 22,-10 18,-44 33,33 17,88 8,59 -92,56 -58,-1 -50,-1 -55,-71 -3,-36 22,-8 81,-32 31,-12 68,-42 22,-17 -32,18 -92,33 -119,1 -95,-111 1,-118 37,-186 -33,18 -112,103 -86,143 22,35 59,63 5,74 -23,4 34,-92 -61,-92 -45,0 -105,28 -103,-21 1,-28 5,-32 43,-22 23,5 25,51 34,-6 10,-59 -18,-29 67,-55 56,-17 62,-25 107,-44 6,-2 8,-2 10,2zm-674 -2c51,-8 46,158 51,108 4,-38 -33,-145 3,-103 11,13 63,143 28,34 -13,-43 -43,-56 20,-67 42,-8 85,101 216,109 75,5 89,-12 84,64 -62,6 -151,-4 -204,14 -27,10 -25,-25 -37,-55 -15,-41 -13,-44 -21,-16 -12,51 -222,87 -202,10 10,-43 13,-34 17,-81 3,-34 26,-18 37,16 0,1 24,124 25,77 1,-23 -21,-105 -21,-105 0,-4 1,-4 4,-5zm-182 -20c-51,31 -5,-35 2,-5l-2 5zm881 -41c3,50 -173,96 -202,100 -114,18 -296,1 -378,-92 -10,-10 62,34 75,40 148,64 365,49 495,-48 3,-2 9,-6 10,0zm27 -557c98,74 124,289 75,265 -8,-5 -35,-140 -43,-163 -3,-11 -36,-95 -37,-103l5 1zm76 283c31,3 25,29 24,59 -2,100 -30,217 -108,288 -23,21 -31,-21 -26,-28 25,-36 22,-57 47,-102 62,-113 37,-182 50,-210 3,-7 6,-7 13,-7zm-738 -323c100,-90 -8,65 -18,83 -9,15 -51,115 -62,114 -51,-2 40,-154 58,-175 7,-8 14,-15 22,-22zm-79 230c10,110 -12,166 49,281 7,13 84,123 19,109 -80,-18 -156,-299 -95,-396 9,-14 22,-14 27,6z"/> </clipPath> <linearGradient id="id1" gradientUnits="userSpaceOnUse" x1="1187.95" y1="-741.495" x2="1152.3" y2="1843.71"> <stop offset="0" style="stop-opacity:1; stop-color:#B2B3B3"/> <stop offset="0.321569" style="stop-opacity:1; stop-color:#393185"/> <stop offset="0.611765" style="stop-opacity:1; stop-color:#9D9E9E"/> <stop offset="1" style="stop-opacity:1; stop-color:#00A0E3"/> </linearGradient> <linearGradient id="id2" gradientUnits="userSpaceOnUse" x1="841.577" y1="679.592" x2="593.107" y2="261.37"> <stop offset="0" style="stop-opacity:1; stop-color:#180E43"/> <stop offset="1" style="stop-opacity:1; stop-color:#1C1B17"/> </linearGradient> </defs> <g id="Слой_x0020_1"> <metadata id="CorelCorpID_0Corel-Layer"/> <path class="fil0" d="M79 938c4,-6 2,-2 5,-6 10,-10 4,-10 13,-14 6,4 2,4 8,7 4,3 6,2 10,5 -1,9 1,1 -4,8l-14 20c-4,-4 -4,-7 -8,-11 -6,-7 -6,-3 -10,-9zm302 382c-10,-8 0,-12 7,-22 4,-5 8,-1 9,5 1,6 20,-6 13,11 -2,4 -14,20 -18,20 -9,1 -3,-1 -6,-10l-1 -2 -4 -2zm-308 -1061c-12,-3 -3,-5 -12,-14 -3,-2 -6,-1 -5,-8 1,-3 13,-19 22,-10 15,16 9,3 13,11 -5,6 -3,2 -10,6 -2,11 0,13 -8,15zm10 -242c3,-5 4,-4 9,-10 11,-15 15,-2 20,2 6,4 7,2 12,4 -5,8 -7,5 -11,9 -5,4 -3,9 -6,15 -5,0 -2,1 -7,-1l-5 -5 -7 6c-1,-14 6,1 3,-12 -3,-11 -2,1 -8,-8zm1306 -17c8,5 1,5 7,12 7,8 5,1 12,3 -1,8 -6,8 -10,13 -7,7 -2,7 -9,12 -11,-3 -4,-5 -11,-12 -6,-5 -7,1 -9,-11 6,-6 5,0 11,-7 6,-6 1,-6 9,-10zm55 1369c-61,24 -101,45 -99,53 2,9 48,2 114,-16 16,23 43,39 73,39 50,0 90,-40 90,-90 0,0 0,-1 0,-2 69,-26 117,-50 114,-59 -2,-9 -53,-1 -125,19 -15,-28 -44,-47 -79,-47 -49,0 -89,40 -89,89 0,5 0,9 1,14zm349 346c6,3 3,3 7,6 6,4 4,0 9,3 0,13 -3,21 -11,26 -4,3 -3,3 -9,4 -5,-14 2,-13 -12,-17 2,-9 2,-6 7,-12 4,-5 4,-7 9,-10zm-451 7l1 -13 -12 -3c1,-9 1,-5 6,-10 4,-4 3,-4 8,-8 9,0 20,8 23,14 -6,5 7,-4 -3,1 -5,3 -1,-1 -5,3 -8,9 5,23 -18,16zm284 -30l-10 0c-3,-5 -3,-9 -7,-13 -6,-5 -8,-1 -9,-11 9,-6 5,2 17,-10 0,-1 1,-1 1,-1 6,2 13,9 17,13 -3,7 -1,1 -4,4 -6,8 -1,8 -5,18zm-159 -53l-5 -11c-8,2 -2,1 -10,4 1,-5 1,-6 2,-10 1,-2 1,-2 2,-4 1,-4 11,-16 15,-15 4,0 5,5 16,13 -5,9 5,-6 -2,3 -13,13 -2,20 -18,20zm209 -36c4,-9 7,2 19,-12 5,-7 -2,-3 7,-6 10,4 3,3 10,10 6,6 6,1 9,10l-10 3c-1,7 -1,11 -4,17 -9,-1 -11,-5 -15,-12 -10,-14 -2,-4 -16,-10zm-270 -15c-5,-2 -7,-7 -11,-11 -7,-7 -9,-4 -15,-9 5,-2 8,-1 12,-5 5,-4 2,-5 7,-12 14,-2 1,-1 20,10l-13 27zm357 -94c-10,-2 0,2 -9,-8 0,0 -1,-1 -1,-1 0,0 -1,-1 -1,-1l-2 -2c-10,-11 -9,-2 -13,-11 8,-4 5,2 13,-6 5,-5 2,-7 9,-11 6,4 4,4 10,10 4,3 7,4 10,7 0,1 0,0 -1,1 0,1 -1,1 -1,1 -2,1 -1,0 -3,2 -3,3 -2,1 -4,5 -4,7 -2,9 -7,14zm-485 -237c-8,-3 -1,1 -6,-5 -1,-1 -2,-3 -3,-3 -13,-15 -12,-8 -15,-14 3,-7 8,-5 16,-7 3,-6 1,-6 4,-12 9,3 3,1 9,9 4,6 5,3 10,8 -2,9 -2,2 -7,12 -3,6 -2,10 -8,12zm504 -32c-13,0 -6,-2 -12,-11 -7,-9 -10,-2 -14,-12 5,-7 3,-1 11,-7 7,-5 4,-6 11,-11 7,5 2,5 7,10 5,5 7,3 13,6 -2,6 -5,3 -10,10 -5,6 -2,10 -6,15zm-106 -116c6,-5 3,-1 12,-3 3,-6 2,-10 8,-14 9,2 5,5 11,11 6,6 9,4 15,8 -8,6 -8,1 -13,11 -3,5 -4,11 -11,13 -6,-6 -3,-10 -9,-16 -9,-10 -7,3 -13,-10zm-315 -18c6,-4 2,-5 10,-10 10,2 4,2 10,8 2,4 2,3 4,5 1,0 1,0 2,1l4 3c-15,12 -1,-5 -18,19 -7,-2 -4,0 -9,-6 -2,-2 -4,-6 -6,-7 -5,-2 -7,-4 -11,-8l2 -3c1,0 4,-2 4,-2l4 -1c0,0 4,1 4,1zm104 -62c6,-6 5,-2 10,-5 7,-5 0,-4 9,-10 8,3 6,4 10,8 8,9 7,1 11,9 -4,7 -4,3 -11,7l-2 13 -15 0 0 -13c-9,-2 -11,-1 -12,-9zm106 -75c3,-6 5,-5 10,-11 6,-6 4,-9 9,-10 4,7 -1,5 6,10 7,5 5,-2 9,8 -5,10 -14,6 -8,24l-16 -2 -1 -12c-2,-1 -3,-1 -5,-2 -4,-3 -2,0 -4,-5zm163 -35c9,-5 4,-6 12,-10 6,6 1,4 7,11 4,4 6,3 6,8 0,9 -4,2 -8,9 -1,3 -2,8 -3,12 -11,-2 -10,-3 -14,-11 -5,-12 -6,-2 -13,-10 2,-6 7,-6 13,-9zm46 -100c6,-8 6,-3 12,-8 6,-5 1,-7 12,-8l5 11c1,0 4,2 5,2l4 3c-8,5 -10,11 -13,18l-1 3c-9,-4 -3,-4 -14,-5 0,-17 -5,-9 -10,-16zm-217 -26c0,0 0,0 1,-1 17,-8 10,-5 17,-15l19 16c-3,6 -6,5 -9,10 -3,5 -1,7 -5,11 -9,0 -8,-3 -13,-10 -4,-8 -6,-5 -13,-10 0,0 1,0 1,0 1,0 1,-1 2,-1zm170 -149c14,6 1,11 16,8 2,11 2,5 5,12 -10,5 -8,-1 -11,10 -1,6 -1,10 -9,8 -9,-1 -5,-5 -8,-11 -3,-9 -3,-1 -10,-9 2,-6 15,-17 17,-18zm-137 -15c1,-4 18,-17 18,-18 8,6 1,4 10,8 6,2 4,0 10,4l-6 9c-7,5 -6,2 -6,15l-13 3c-1,-1 -1,-1 -1,-2 -7,-25 -6,-7 -12,-19zm152 -151c6,6 1,5 8,9 7,4 6,-1 10,6 -3,7 -3,1 -8,8 -2,3 -2,9 -4,13 -11,-1 -8,-4 -14,-11 -7,-6 -9,-2 -12,-10 7,-4 6,0 12,-6 5,-5 1,-5 8,-9zm48 -93c6,-5 3,-9 10,-9 6,1 4,5 8,10 6,7 6,1 8,10 -7,7 -5,0 -9,9 -5,10 2,5 -9,10l-12 -16c-8,-7 -6,1 -8,-8 7,-6 6,0 12,-6zm-234 -133c50,-9 91,28 99,69 14,69 -65,137 -134,86 -59,-44 -38,-141 35,-155zm-184 87c5,-9 3,0 11,-8 4,-5 2,-6 6,-11 3,2 16,10 17,13 1,10 -6,19 -12,25 -8,-4 -3,-6 -17,-15 -6,-4 -1,3 -5,-4zm349 -91c6,-3 8,0 14,-6 7,-5 1,-5 9,-9l17 17c-3,6 -5,5 -8,10 -4,5 -3,7 -7,12 -7,-3 -9,-9 -13,-13 -4,-2 -11,-7 -12,-11zm-470 -11c4,-6 0,-1 6,-5 13,-7 3,-7 13,-13 8,3 5,5 10,9 7,7 6,-1 10,7 -6,8 -6,-2 -11,10 -3,6 -3,9 -7,13 -8,-2 -6,-6 -10,-12 -7,-9 -7,1 -11,-9zm177 -41c4,-3 3,-5 7,-9 7,1 15,10 17,16 -3,7 -3,3 -6,11 -3,8 0,7 -7,11 -9,-6 -3,-7 -9,-13 -6,-6 -7,0 -12,-9 5,-6 4,-1 10,-7zm145 -78c2,2 5,2 9,5 -3,6 -5,4 -10,9 -2,3 -8,24 -17,2 -4,-9 -1,-2 -5,-6 -4,-3 -1,0 -4,-3l-2 -3c4,-2 8,-3 12,-7 5,-5 2,-6 11,-6 3,3 4,6 6,9zm-376 -19c5,-3 7,-2 11,-7 5,-5 4,-7 10,-11 4,3 5,7 8,12l12 2c-4,10 -5,-1 -10,15 -2,6 -4,11 -14,11 -3,-7 0,-9 -6,-14 -6,-4 -8,-2 -11,-8zm532 -25c14,-6 5,-9 15,-12 4,4 2,6 6,9 3,3 5,2 9,6 -2,7 1,0 -4,7 -9,15 -6,15 -17,15 -4,-5 -2,-7 -6,-12 -6,-6 -6,-1 -11,-8l8 -5zm-1421 131c4,4 3,5 7,8 5,5 3,0 7,7 -5,7 -2,0 -6,6 -2,4 0,3 -2,7 -3,5 -8,4 -15,4 -11,-21 -1,-8 -13,-15 2,-5 15,-16 22,-17zm102 11c2,-8 3,-6 10,-9 10,-5 2,-4 11,-8 7,3 3,2 8,7 5,4 5,2 8,6 -2,7 -3,3 -7,11 -4,7 0,4 -7,10 -13,-1 0,-2 -10,-3 -9,-1 1,1 -7,2 0,-7 1,-1 3,-10 -1,-1 -1,-1 -2,-1l-7 -5zm666 -21c22,-8 9,-7 19,-13l17 14c-3,6 -4,4 -9,10 -2,3 -3,6 -6,9 -8,-2 -4,-3 -10,-9 -6,-5 -8,-3 -11,-11zm-124 -18c-3,-2 -1,0 -3,-3l-6 -7c-4,-4 -7,-4 -8,-9 -1,-6 10,-16 15,-19l14 14c-2,6 -8,21 -12,24zm-800 -46c4,-9 3,-3 9,-8 7,-5 3,-3 6,-11 10,1 -1,-2 10,5 3,3 11,7 11,12 1,1 -10,20 -13,22 -7,-3 -1,1 -10,-9l-1 -2c-11,-13 -8,-1 -12,-9zm466 -6c4,-9 5,-5 12,-10 7,-4 2,-4 9,-8 6,2 13,9 16,14l-14 23c-4,-1 -7,-3 -9,-6l-3 -10 -11 -3zm209 -86c3,-5 4,-4 10,-9 5,-5 4,-6 11,-7 5,4 2,4 7,9l8 7c-17,17 -5,10 -13,19 -15,-1 -14,-10 -14,-14 -9,-2 -6,1 -9,-5zm149 -3c3,-6 6,-4 12,-9 6,-5 3,-7 12,-8 4,4 3,7 7,10 3,2 8,2 11,4 -2,6 -5,4 -10,9 -5,4 -3,9 -6,14 -14,1 -13,-10 -14,-11 -4,-12 -2,-2 -12,-9zm-606 -11c4,-6 4,-1 11,-8 5,-5 1,-5 9,-9 4,2 4,4 8,7 11,12 9,6 0,18 -6,8 2,5 -6,10 -13,-1 0,-2 -10,-10 -6,-4 -9,-1 -12,-8zm108 -2c5,-4 6,-2 10,-6 4,-4 2,-5 8,-9l13 10c3,2 1,-1 3,3 -2,9 -4,5 -8,14 -3,7 0,9 -12,8 -4,-7 1,-8 -5,-13 -5,-4 -6,1 -9,-7zm-418 747c7,-2 4,2 10,-4 5,-5 -1,-4 8,-7 17,9 13,26 2,37 -11,-1 -6,-6 -13,-11 -6,-6 -9,-1 -7,-15zm31 -178c1,-9 3,-8 9,-11 8,-5 4,-5 9,-9 1,0 15,10 16,16 0,6 -13,20 -17,21 -7,-6 -1,-5 -7,-11 -3,-4 -5,-2 -10,-6zm69 -175c-13,-2 -9,-14 2,-9 1,7 2,3 -2,9zm-144 -7c2,-10 1,-4 8,-10 4,-4 3,-4 7,-8 9,1 13,6 16,14 -1,5 -8,16 -14,19 -7,-3 0,1 -5,-5 -9,-12 -6,-2 -12,-10zm159 -4c1,-9 4,-13 13,-9 3,7 -2,12 -6,14 -5,-2 -4,-1 -7,-5zm-10 -32c5,0 10,5 12,9 -6,4 -4,3 -12,2l0 -11zm75 9c-2,-9 3,-14 11,-15 0,9 -1,14 -11,15zm-46 -81c50,-15 71,66 27,79 -26,7 -47,-10 -52,-27 -4,-11 -3,-25 2,-35 5,-11 10,-14 23,-17zm51 7c0,-7 2,-6 6,-7 4,5 3,5 2,13 -4,-1 -7,0 -8,-6zm91 1549l-13 -2c-6,-21 -3,-9 -14,-16 1,-12 5,-7 10,-9 7,-4 1,-8 14,-9 7,4 0,1 7,7 5,5 3,2 8,5 -8,15 -8,0 -12,24zm-140 -594c-41,0 -74,32 -74,73 0,40 33,73 74,73 40,0 73,-33 73,-73 0,-41 -33,-73 -73,-73zm-183 576c-7,-4 -18,-14 -19,-23 4,-3 5,-2 9,-6 4,-5 2,-5 10,-7 6,4 2,3 7,8 5,6 4,3 9,7 -5,8 -5,4 -10,9 -5,5 0,6 -6,12zm169 -44c-6,-5 -2,-3 -6,-10 -12,-3 -22,-1 -4,-17 1,-1 1,-1 1,-1 14,-14 6,-6 27,5l-12 17c-5,6 2,2 -6,6zm122 -75c5,-9 1,0 12,-8 7,-5 4,-5 8,-12 8,0 6,2 11,7 8,9 8,1 13,9 -4,9 -5,2 -11,8 -4,5 -1,9 -4,16 -11,0 -7,-2 -14,-10 -9,-11 -8,-3 -15,-10zm-196 -33c-12,2 -11,-1 -16,-8 -4,-8 -10,-8 -12,-13 5,-6 6,-4 11,-7 9,-6 3,-7 13,-9 5,5 3,5 8,9 4,4 7,4 10,7 -20,14 -8,9 -14,21zm136 -40c-10,-2 -6,-3 -18,-3l2 -11c-3,-1 -4,-2 -4,-2 -12,-7 -10,0 -12,-8 6,-4 8,0 14,-4 7,-5 0,-6 10,-11 9,4 4,5 10,10 9,7 9,-1 12,7 -18,5 -14,16 -14,22zm-45 -122c7,3 14,12 17,18 -7,13 -1,-7 -9,19l-12 2c-4,-19 -3,-11 -15,-19 1,-8 1,-6 9,-10 7,-4 2,0 5,-4l5 -6zm-158 21c-11,-4 -4,-7 -15,-14l-3 -1c0,-1 -1,-1 -1,-1 4,-10 19,-18 22,-17 7,4 1,1 6,6 3,4 3,3 7,5 -2,6 -3,4 -7,11 -4,9 -2,7 -9,11zm-15 -134c-9,-5 -1,-7 -9,-13 -3,-3 -10,-4 -13,-7 1,-14 8,-3 16,-15l4 -8c3,3 0,0 4,5 2,3 1,3 3,5 5,6 6,3 13,6 0,10 -5,4 -10,12 -7,9 2,8 -8,15zm28 -177c8,4 -1,2 14,14l5 6c-25,16 -8,7 -18,19 -7,-4 -4,-3 -9,-10 -5,-8 -8,-7 -10,-9 -6,-9 2,-7 7,-10 8,-4 2,-5 11,-10zm199 -92l-4 -11 -12 -4c0,-10 2,-6 10,-10 7,-3 5,-7 11,-10 5,2 13,10 16,15 -4,8 0,0 -4,6 -5,6 -1,0 -4,7 -2,6 4,2 -3,7 -5,3 -5,1 -10,0zm-175 -26c-5,-7 -1,-7 -8,-13 -12,-10 -12,-10 1,-18 4,-3 4,-5 9,-8 3,2 12,12 15,15 0,1 -11,22 -17,24zm62 -43c-14,0 -7,0 -14,-9 -5,-8 -9,-5 -10,-13 3,-2 7,-3 10,-6 6,-4 2,-5 9,-10 11,7 -2,3 19,16 -4,6 -6,4 -10,9 -3,4 -1,8 -4,13z"/> <g> <g style="clip-path:url(#id0)"> <polygon class="fil1" points="949,1058 510,2370 524,2383 "/> <polygon id="1" class="fil1" points="949,1058 522,2381 534,2392 "/> <polygon id="2" class="fil2" points="949,1058 532,2389 544,2400 "/> <polygon id="3" class="fil3" points="949,1058 542,2398 555,2408 "/> <polygon id="4" class="fil4" points="949,1058 552,2406 565,2416 "/> <polygon id="5" class="fil5" points="949,1058 562,2414 575,2423 "/> <polygon id="6" class="fil6" points="949,1058 572,2422 585,2431 "/> <polygon id="7" class="fil7" points="949,1058 583,2429 595,2438 "/> <polygon id="8" class="fil8" points="949,1058 593,2436 606,2445 "/> <polygon id="9" class="fil9" points="949,1058 603,2443 616,2452 "/> <polygon id="10" class="fil10" points="949,1058 614,2450 627,2459 "/> <polygon id="11" class="fil11" points="949,1058 624,2457 637,2465 "/> <polygon id="12" class="fil12" points="949,1058 635,2464 648,2471 "/> <polygon id="13" class="fil13" points="949,1058 645,2470 658,2477 "/> <polygon id="14" class="fil14" points="949,1058 656,2476 669,2483 "/> <polygon id="15" class="fil15" points="949,1058 666,2482 680,2489 "/> <polygon id="16" class="fil16" points="949,1058 677,2487 690,2494 "/> <polygon id="17" class="fil17" points="949,1058 688,2493 701,2499 "/> <polygon id="18" class="fil18" points="949,1058 699,2498 712,2504 "/> <polygon id="19" class="fil19" points="949,1058 709,2503 723,2509 "/> <polygon id="20" class="fil20" points="949,1058 720,2508 734,2513 "/> <polygon id="21" class="fil21" points="949,1058 731,2512 745,2517 "/> <polygon id="22" class="fil22" points="949,1058 742,2516 756,2521 "/> <polygon id="23" class="fil22" points="949,1058 753,2520 767,2525 "/> <polygon id="24" class="fil23" points="949,1058 764,2524 778,2529 "/> <polygon id="25" class="fil24" points="949,1058 775,2528 789,2532 "/> <polygon id="26" class="fil25" points="949,1058 786,2531 800,2535 "/> <polygon id="27" class="fil25" points="949,1058 797,2535 811,2538 "/> <polygon id="28" class="fil26" points="949,1058 808,2537 822,2541 "/> <polygon id="29" class="fil27" points="949,1058 819,2540 833,2543 "/> <polygon id="30" class="fil28" points="949,1058 830,2543 844,2546 "/> <polygon id="31" class="fil29" points="949,1058 841,2545 855,2548 "/> <polygon id="32" class="fil30" points="949,1058 853,2547 866,2549 "/> <polygon id="33" class="fil31" points="949,1058 864,2549 878,2551 "/> <polygon id="34" class="fil32" points="949,1058 875,2551 889,2552 "/> <polygon id="35" class="fil33" points="949,1058 886,2552 900,2553 "/> <polygon id="36" class="fil34" points="949,1058 897,2553 911,2554 "/> <polygon id="37" class="fil35" points="949,1058 908,2554 922,2555 "/> <polygon id="38" class="fil36" points="949,1058 920,2555 934,2555 "/> <polygon id="39" class="fil37" points="949,1058 931,2555 945,2555 "/> <polygon id="40" class="fil38" points="949,1058 942,2555 956,2555 "/> <polygon id="41" class="fil39" points="949,1058 953,2555 967,2555 "/> <polygon id="42" class="fil40" points="949,1058 965,2555 979,2555 "/> <polygon id="43" class="fil41" points="949,1058 976,2555 990,2554 "/> <polygon id="44" class="fil42" points="949,1058 987,2554 1001,2553 "/> <polygon id="45" class="fil43" points="949,1058 998,2553 1012,2552 "/> <polygon id="46" class="fil44" points="949,1058 1009,2552 1023,2550 "/> <polygon id="47" class="fil45" points="949,1058 1021,2551 1034,2549 "/> <polygon id="48" class="fil46" points="949,1058 1032,2549 1046,2547 "/> <polygon id="49" class="fil46" points="949,1058 1043,2547 1057,2545 "/> <polygon id="50" class="fil47" points="949,1058 1054,2545 1068,2543 "/> <polygon id="51" class="fil46" points="949,1058 1065,2543 1079,2540 "/> <polygon id="52" class="fil48" points="949,1058 1076,2541 1090,2537 "/> <polygon id="53" class="fil49" points="949,1058 1087,2538 1101,2534 "/> <polygon id="54" class="fil50" points="949,1058 1098,2535 1112,2531 "/> <polygon id="55" class="fil51" points="949,1058 1109,2532 1123,2528 "/> <polygon id="56" class="fil52" points="949,1058 1121,2529 1134,2524 "/> <polygon id="57" class="fil53" points="949,1058 1132,2525 1145,2520 "/> <polygon id="58" class="fil54" points="949,1058 1142,2521 1156,2516 "/> <polygon id="59" class="fil55" points="949,1058 1153,2517 1167,2512 "/> <polygon id="60" class="fil56" points="949,1058 1164,2513 1178,2507 "/> <polygon id="61" class="fil57" points="949,1058 1175,2508 1189,2502 "/> <polygon id="62" class="fil58" points="949,1058 1186,2504 1200,2497 "/> <polygon id="63" class="fil59" points="949,1058 1197,2499 1210,2492 "/> <polygon id="64" class="fil60" points="949,1058 1208,2494 1221,2487 "/> <polygon id="65" class="fil61" points="949,1058 1218,2488 1232,2481 "/> <polygon id="66" class="fil62" points="949,1058 1229,2483 1242,2475 "/> <polygon id="67" class="fil63" points="949,1058 1240,2477 1253,2469 "/> <polygon id="68" class="fil64" points="949,1058 1250,2471 1264,2463 "/> <polygon id="69" class="fil65" points="949,1058 1261,2465 1274,2457 "/> <polygon id="70" class="fil66" points="949,1058 1271,2458 1284,2450 "/> <polygon id="71" class="fil67" points="949,1058 1282,2452 1295,2443 "/> <polygon id="72" class="fil68" points="949,1058 1292,2445 1305,2436 "/> <polygon id="73" class="fil69" points="949,1058 1303,2438 1316,2428 "/> <polygon id="74" class="fil70" points="949,1058 1313,2430 1326,2421 "/> <polygon id="75" class="fil71" points="949,1058 1323,2423 1336,2413 "/> <polygon id="76" class="fil72" points="949,1058 1333,2415 1346,2405 "/> <polygon id="77" class="fil73" points="949,1058 1344,2407 1356,2397 "/> <polygon id="78" class="fil74" points="949,1058 1354,2399 1366,2389 "/> <polygon id="79" class="fil75" points="949,1058 1364,2391 1376,2380 "/> <polygon id="80" class="fil76" points="949,1058 1374,2382 1386,2371 "/> <polygon id="81" class="fil77" points="949,1058 1383,2374 1396,2362 "/> <polygon id="82" class="fil78" points="949,1058 1393,2365 1405,2353 "/> <polygon id="83" class="fil79" points="949,1058 1403,2356 1415,2344 "/> <polygon id="84" class="fil80" points="949,1058 1413,2346 1425,2334 "/> <polygon id="85" class="fil81" points="949,1058 1422,2337 1434,2325 "/> <polygon id="86" class="fil82" points="949,1058 1432,2327 1444,2315 "/> <polygon id="87" class="fil83" points="949,1058 1441,2317 1453,2305 "/> <polygon id="88" class="fil84" points="949,1058 1451,2307 1462,2294 "/> <polygon id="89" class="fil85" points="949,1058 1460,2297 1472,2284 "/> <polygon id="90" class="fil86" points="949,1058 1469,2286 1481,2273 "/> <polygon id="91" class="fil87" points="949,1058 1478,2276 1490,2262 "/> <polygon id="92" class="fil88" points="949,1058 1488,2265 1499,2251 "/> <polygon id="93" class="fil88" points="949,1058 1497,2254 1508,2240 "/> <polygon id="94" class="fil88" points="949,1058 1505,2243 1516,2228 "/> <polygon id="95" class="fil88" points="949,1058 1514,2231 1525,2217 "/> <polygon id="96" class="fil89" points="949,1058 1523,2220 1534,2205 "/> <polygon id="97" class="fil90" points="949,1058 1532,2208 1542,2193 "/> <polygon id="98" class="fil91" points="949,1058 1540,2196 1551,2181 "/> <polygon id="99" class="fil92" points="949,1058 1549,2184 1559,2169 "/> <polygon id="100" class="fil93" points="949,1058 1557,2172 1568,2156 "/> <polygon id="101" class="fil94" points="949,1058 1565,2159 1576,2144 "/> <polygon id="102" class="fil95" points="949,1058 1574,2147 1584,2131 "/> <polygon id="103" class="fil96" points="949,1058 1582,2134 1592,2118 "/> <polygon id="104" class="fil97" points="949,1058 1590,2121 1600,2105 "/> <polygon id="105" class="fil98" points="949,1058 1598,2108 1607,2092 "/> <polygon id="106" class="fil99" points="949,1058 1605,2095 1615,2078 "/> <polygon id="107" class="fil100" points="949,1058 1613,2081 1623,2064 "/> <polygon id="108" class="fil101" points="949,1058 1621,2068 1630,2051 "/> <polygon id="109" class="fil102" points="949,1058 1628,2054 1638,2037 "/> <polygon id="110" class="fil103" points="949,1058 1636,2040 1645,2023 "/> <polygon id="111" class="fil104" points="949,1058 1643,2026 1652,2009 "/> <polygon id="112" class="fil105" points="949,1058 1650,2012 1659,1994 "/> <polygon id="113" class="fil105" points="949,1058 1657,1998 1666,1980 "/> <polygon id="114" class="fil106" points="949,1058 1664,1983 1673,1965 "/> <polygon id="115" class="fil107" points="949,1058 1671,1969 1680,1950 "/> <polygon id="116" class="fil108" points="949,1058 1678,1954 1686,1936 "/> <polygon id="117" class="fil109" points="949,1058 1685,1939 1693,1921 "/> <polygon id="118" class="fil110" points="949,1058 1691,1924 1699,1905 "/> <polygon id="119" class="fil110" points="949,1058 1698,1909 1706,1890 "/> <polygon id="120" class="fil111" points="949,1058 1704,1894 1712,1875 "/> <polygon id="121" class="fil112" points="949,1058 1710,1879 1718,1859 "/> <polygon id="122" class="fil113" points="949,1058 1716,1863 1724,1844 "/> <polygon id="123" class="fil114" points="949,1058 1722,1847 1730,1828 "/> <polygon id="124" class="fil115" points="949,1058 1728,1832 1735,1812 "/> <polygon id="125" class="fil116" points="949,1058 1734,1816 1741,1796 "/> <polygon id="126" class="fil117" points="949,1058 1739,1800 1746,1780 "/> <polygon id="127" class="fil118" points="949,1058 1745,1784 1752,1764 "/> <polygon id="128" class="fil119" points="949,1058 1750,1768 1757,1747 "/> <polygon id="129" class="fil120" points="949,1058 1756,1751 1762,1731 "/> <polygon id="130" class="fil121" points="949,1058 1761,1735 1767,1714 "/> <polygon id="131" class="fil122" points="949,1058 1766,1718 1772,1698 "/> <polygon id="132" class="fil123" points="949,1058 1771,1702 1777,1681 "/> <polygon id="133" class="fil124" points="949,1058 1775,1685 1781,1664 "/> <polygon id="134" class="fil125" points="949,1058 1780,1668 1786,1647 "/> <polygon id="135" class="fil126" points="949,1058 1784,1651 1790,1630 "/> <polygon id="136" class="fil127" points="949,1058 1789,1634 1794,1613 "/> <polygon id="137" class="fil128" points="949,1058 1793,1617 1798,1596 "/> <polygon id="138" class="fil129" points="949,1058 1797,1600 1802,1579 "/> <polygon id="139" class="fil130" points="949,1058 1801,1583 1806,1561 "/> <polygon id="140" class="fil131" points="949,1058 1805,1566 1810,1544 "/> <polygon id="141" class="fil132" points="949,1058 1809,1548 1813,1526 "/> <polygon id="142" class="fil133" points="949,1058 1812,1531 1817,1509 "/> <polygon id="143" class="fil134" points="949,1058 1816,1513 1820,1491 "/> <polygon id="144" class="fil135" points="949,1058 1819,1496 1823,1474 "/> <polygon id="145" class="fil136" points="949,1058 1822,1478 1826,1456 "/> <polygon id="146" class="fil137" points="949,1058 1826,1460 1829,1438 "/> <polygon id="147" class="fil138" points="949,1058 1829,1442 1832,1420 "/> <polygon id="148" class="fil139" points="949,1058 1831,1425 1835,1402 "/> <polygon id="149" class="fil140" points="949,1058 1834,1407 1837,1384 "/> <polygon id="150" class="fil141" points="949,1058 1837,1389 1840,1366 "/> <polygon id="151" class="fil142" points="949,1058 1839,1371 1842,1348 "/> <polygon id="152" class="fil143" points="949,1058 1841,1353 1844,1330 "/> <polygon id="153" class="fil144" points="949,1058 1843,1334 1846,1312 "/> <polygon id="154" class="fil145" points="949,1058 1845,1316 1848,1294 "/> <polygon id="155" class="fil146" points="949,1058 1847,1298 1849,1275 "/> <polygon id="156" class="fil147" points="949,1058 1849,1280 1851,1257 "/> <polygon id="157" class="fil148" points="949,1058 1851,1262 1852,1239 "/> <polygon id="158" class="fil149" points="949,1058 1852,1243 1854,1220 "/> <polygon id="159" class="fil150" points="949,1058 1853,1225 1855,1202 "/> <polygon id="160" class="fil151" points="949,1058 1855,1207 1856,1184 "/> <polygon id="161" class="fil152" points="949,1058 1856,1188 1857,1165 "/> <polygon id="162" class="fil153" points="949,1058 1857,1170 1857,1147 "/> <polygon id="163" class="fil154" points="949,1058 1857,1151 1858,1128 "/> <polygon id="164" class="fil155" points="949,1058 1858,1133 1859,1110 "/> <polygon id="165" class="fil156" points="949,1058 1858,1115 1859,1092 "/> <polygon id="166" class="fil157" points="949,1058 1859,1096 1859,1073 "/> <polygon id="167" class="fil158" points="949,1058 1859,1078 1859,1055 "/> <polygon id="168" class="fil159" points="949,1058 1859,1059 1859,1036 "/> <polygon id="169" class="fil160" points="949,1058 1859,1041 1859,1018 "/> <polygon id="170" class="fil161" points="949,1058 1859,1022 1858,999 "/> <polygon id="171" class="fil162" points="949,1058 1858,1004 1858,981 "/> <polygon id="172" class="fil163" points="949,1058 1858,986 1857,962 "/> <polygon id="173" class="fil164" points="949,1058 1857,967 1856,944 "/> <polygon id="174" class="fil165" points="949,1058 1857,949 1856,926 "/> <polygon id="175" class="fil166" points="949,1058 1856,930 1854,907 "/> <polygon id="176" class="fil167" points="949,1058 1855,912 1853,889 "/> <polygon id="177" class="fil168" points="949,1058 1854,894 1852,871 "/> <polygon id="178" class="fil169" points="949,1058 1852,875 1850,852 "/> <polygon id="179" class="fil170" points="949,1058 1851,857 1849,834 "/> <polygon id="180" class="fil171" points="949,1058 1849,839 1847,816 "/> <polygon id="181" class="fil172" points="949,1058 1848,820 1845,798 "/> <polygon id="182" class="fil173" points="949,1058 1846,802 1843,780 "/> <polygon id="183" class="fil174" points="949,1058 1844,784 1841,761 "/> <polygon id="184" class="fil175" points="949,1058 1842,766 1839,743 "/> <polygon id="185" class="fil176" points="949,1058 1839,748 1836,725 "/> <polygon id="186" class="fil177" points="949,1058 1837,730 1834,707 "/> <polygon id="187" class="fil178" points="949,1058 1834,712 1831,689 "/> <polygon id="188" class="fil179" points="949,1058 1832,694 1828,672 "/> <polygon id="189" class="fil180" points="949,1058 1829,676 1825,654 "/> <polygon id="190" class="fil181" points="949,1058 1826,658 1822,636 "/> <polygon id="191" class="fil182" points="949,1058 1823,640 1819,618 "/> <polygon id="192" class="fil183" points="949,1058 1820,623 1816,601 "/> <polygon id="193" class="fil184" points="949,1058 1817,605 1812,583 "/> <polygon id="194" class="fil185" points="949,1058 1813,588 1809,566 "/> <polygon id="195" class="fil186" points="949,1058 1809,570 1805,548 "/> <polygon id="196" class="fil187" points="949,1058 1806,553 1801,531 "/> <polygon id="197" class="fil188" points="949,1058 1802,535 1797,514 "/> <polygon id="198" class="fil189" points="949,1058 1798,518 1793,497 "/> <polygon id="199" class="fil190" points="949,1058 1794,501 1789,480 "/> <polygon id="200" class="fil191" points="949,1058 1790,484 1784,463 "/> <polygon id="201" class="fil192" points="949,1058 1785,467 1780,446 "/> <polygon id="202" class="fil193" points="949,1058 1781,450 1775,429 "/> <polygon id="203" class="fil194" points="949,1058 1776,433 1770,412 "/> <polygon id="204" class="fil195" points="949,1058 1771,416 1765,396 "/> <polygon id="205" class="fil196" points="949,1058 1767,400 1760,379 "/> <polygon id="206" class="fil197" points="949,1058 1762,383 1755,363 "/> <polygon id="207" class="fil198" points="949,1058 1756,367 1750,346 "/> <polygon id="208" class="fil199" points="949,1058 1751,351 1744,330 "/> <polygon id="209" class="fil200" points="949,1058 1746,334 1739,314 "/> <polygon id="210" class="fil201" points="949,1058 1740,318 1733,298 "/> <polygon id="211" class="fil202" points="949,1058 1735,302 1728,282 "/> <polygon id="212" class="fil203" points="949,1058 1729,286 1722,267 "/> <polygon id="213" class="fil204" points="949,1058 1723,271 1716,251 "/> <polygon id="214" class="fil205" points="949,1058 1717,255 1710,236 "/> <polygon id="215" class="fil206" points="949,1058 1711,239 1703,220 "/> <polygon id="216" class="fil207" points="949,1058 1705,224 1697,205 "/> <polygon id="217" class="fil208" points="949,1058 1699,209 1691,190 "/> <polygon id="218" class="fil209" points="949,1058 1692,194 1684,175 "/> <polygon id="219" class="fil210" points="949,1058 1686,179 1677,160 "/> <polygon id="220" class="fil211" points="949,1058 1679,164 1671,145 "/> <polygon id="221" class="fil212" points="949,1058 1672,149 1664,131 "/> <polygon id="222" class="fil213" points="949,1058 1665,134 1657,116 "/> <polygon id="223" class="fil214" points="949,1058 1659,120 1650,102 "/> <polygon id="224" class="fil215" points="949,1058 1651,106 1642,88 "/> <polygon id="225" class="fil216" points="949,1058 1644,92 1635,74 "/> <polygon id="226" class="fil217" points="949,1058 1637,77 1628,60 "/> <polygon id="227" class="fil218" points="949,1058 1630,64 1620,46 "/> <polygon id="228" class="fil219" points="949,1058 1622,50 1613,33 "/> <polygon id="229" class="fil220" points="949,1058 1614,36 1605,20 "/> <polygon id="230" class="fil221" points="949,1058 1607,23 1597,6 "/> <polygon id="231" class="fil222" points="949,1058 1599,10 1589,-7 "/> <polygon id="232" class="fil223" points="949,1058 1591,-3 1581,-20 "/> <polygon id="233" class="fil224" points="949,1058 1583,-16 1573,-32 "/> <polygon id="234" class="fil225" points="949,1058 1575,-29 1565,-45 "/> <polygon id="235" class="fil226" points="949,1058 1567,-42 1556,-57 "/> <polygon id="236" class="fil227" points="949,1058 1559,-54 1548,-70 "/> <polygon id="237" class="fil228" points="949,1058 1550,-67 1540,-82 "/> <polygon id="238" class="fil229" points="949,1058 1542,-79 1531,-94 "/> <polygon id="239" class="fil230" points="949,1058 1533,-91 1522,-105 "/> <polygon id="240" class="fil231" points="949,1058 1524,-102 1514,-117 "/> <polygon id="241" class="fil232" points="949,1058 1516,-114 1505,-128 "/> <polygon id="242" class="fil233" points="949,1058 1507,-125 1496,-139 "/> <polygon id="243" class="fil234" points="949,1058 1498,-137 1487,-150 "/> <polygon id="244" class="fil235" points="949,1058 1489,-148 1478,-161 "/> <polygon id="245" class="fil236" points="949,1058 1480,-158 1469,-172 "/> <polygon id="246" class="fil237" points="949,1058 1471,-169 1459,-182 "/> <polygon id="247" class="fil238" points="949,1058 1462,-180 1450,-192 "/> <polygon id="248" class="fil239" points="949,1058 1452,-190 1441,-203 "/> <polygon id="249" class="fil240" points="949,1058 1443,-200 1431,-212 "/> <polygon id="250" class="fil241" points="949,1058 1433,-210 1422,-222 "/> <polygon id="251" class="fil242" points="949,1058 1424,-220 1412,-232 "/> <polygon id="252" class="fil243" points="949,1058 1414,-229 1402,-241 "/> <polygon id="253" class="fil244" points="949,1058 1405,-239 1392,-250 "/> <polygon id="254" class="fil245" points="949,1058 1395,-248 1383,-259 "/> <polygon id="255" class="fil244" points="949,1058 1385,-257 1373,-268 "/> <polygon id="256" class="fil243" points="949,1058 1375,-265 1363,-276 "/> <polygon id="257" class="fil242" points="949,1058 1365,-274 1353,-284 "/> <polygon id="258" class="fil241" points="949,1058 1355,-282 1343,-292 "/> <polygon id="259" class="fil240" points="949,1058 1345,-290 1333,-300 "/> <polygon id="260" class="fil239" points="949,1058 1335,-298 1322,-308 "/> <polygon id="261" class="fil238" points="949,1058 1325,-306 1312,-315 "/> <polygon id="262" class="fil237" points="949,1058 1315,-314 1302,-323 "/> <polygon id="263" class="fil236" points="949,1058 1304,-321 1291,-330 "/> <polygon id="264" class="fil235" points="949,1058 1294,-328 1281,-337 "/> <polygon id="265" class="fil234" points="949,1058 1284,-335 1271,-343 "/> <polygon id="266" class="fil233" points="949,1058 1273,-342 1260,-350 "/> <polygon id="267" class="fil232" points="949,1058 1263,-348 1249,-356 "/> <polygon id="268" class="fil231" points="949,1058 1252,-354 1239,-362 "/> <polygon id="269" class="fil230" points="949,1058 1242,-360 1228,-368 "/> <polygon id="270" class="fil229" points="949,1058 1231,-366 1218,-373 "/> <polygon id="271" class="fil228" points="949,1058 1220,-372 1207,-379 "/> <polygon id="272" class="fil227" points="949,1058 1209,-377 1196,-384 "/> <polygon id="273" class="fil226" points="949,1058 1199,-382 1185,-389 "/> <polygon id="274" class="fil225" points="949,1058 1188,-387 1174,-393 "/> <polygon id="275" class="fil224" points="949,1058 1177,-392 1163,-398 "/> <polygon id="276" class="fil223" points="949,1058 1166,-397 1153,-402 "/> <polygon id="277" class="fil222" points="949,1058 1155,-401 1142,-406 "/> <polygon id="278" class="fil221" points="949,1058 1144,-405 1131,-410 "/> <polygon id="279" class="fil220" points="949,1058 1133,-409 1120,-413 "/> <polygon id="280" class="fil219" points="949,1058 1122,-412 1109,-417 "/> <polygon id="281" class="fil218" points="949,1058 1111,-416 1098,-420 "/> <polygon id="282" class="fil217" points="949,1058 1100,-419 1086,-423 "/> <polygon id="283" class="fil216" points="949,1058 1089,-422 1075,-425 "/> <polygon id="284" class="fil215" points="949,1058 1078,-425 1064,-428 "/> <polygon id="285" class="fil214" points="949,1058 1067,-427 1053,-430 "/> <polygon id="286" class="fil213" points="949,1058 1056,-430 1042,-432 "/> <polygon id="287" class="fil212" points="949,1058 1045,-432 1031,-434 "/> <polygon id="288" class="fil211" points="949,1058 1034,-433 1020,-435 "/> <polygon id="289" class="fil210" points="949,1058 1022,-435 1008,-437 "/> <polygon id="290" class="fil209" points="949,1058 1011,-436 997,-438 "/> <polygon id="291" class="fil208" points="949,1058 1000,-438 986,-439 "/> <polygon id="292" class="fil207" points="949,1058 989,-438 975,-439 "/> <polygon id="293" class="fil206" points="949,1058 978,-439 964,-440 "/> <polygon id="294" class="fil205" points="949,1058 966,-440 952,-440 "/> <polygon id="295" class="fil204" points="949,1058 955,-440 941,-440 "/> <polygon id="296" class="fil203" points="949,1058 944,-440 930,-440 "/> <polygon id="297" class="fil202" points="949,1058 933,-440 919,-439 "/> <polygon id="298" class="fil201" points="949,1058 922,-439 908,-438 "/> <polygon id="299" class="fil200" points="949,1058 910,-439 896,-438 "/> <polygon id="300" class="fil199" points="949,1058 899,-438 885,-436 "/> <polygon id="301" class="fil198" points="949,1058 888,-437 874,-435 "/> <polygon id="302" class="fil197" points="949,1058 877,-435 863,-433 "/> <polygon id="303" class="fil196" points="949,1058 866,-434 852,-431 "/> <polygon id="304" class="fil195" points="949,1058 854,-432 840,-429 "/> <polygon id="305" class="fil194" points="949,1058 843,-430 829,-427 "/> <polygon id="306" class="fil193" points="949,1058 832,-428 818,-425 "/> <polygon id="307" class="fil192" points="949,1058 821,-425 807,-422 "/> <polygon id="308" class="fil191" points="949,1058 810,-422 796,-419 "/> <polygon id="309" class="fil190" points="949,1058 799,-420 785,-416 "/> <polygon id="310" class="fil189" points="949,1058 788,-416 774,-412 "/> <polygon id="311" class="fil188" points="949,1058 777,-413 763,-409 "/> <polygon id="312" class="fil187" points="949,1058 766,-409 752,-405 "/> <polygon id="313" class="fil186" points="949,1058 755,-406 741,-401 "/> <polygon id="314" class="fil185" points="949,1058 744,-402 730,-396 "/> <polygon id="315" class="fil184" points="949,1058 733,-397 719,-392 "/> <polygon id="316" class="fil183" points="949,1058 722,-393 708,-387 "/> <polygon id="317" class="fil182" points="949,1058 711,-388 698,-382 "/> <polygon id="318" class="fil181" points="949,1058 700,-383 687,-377 "/> <polygon id="319" class="fil180" points="949,1058 690,-378 676,-371 "/> <polygon id="320" class="fil179" points="949,1058 679,-373 666,-366 "/> <polygon id="321" class="fil178" points="949,1058 668,-367 655,-360 "/> <polygon id="322" class="fil177" points="949,1058 658,-361 644,-354 "/> <polygon id="323" class="fil176" points="949,1058 647,-355 634,-348 "/> <polygon id="324" class="fil175" points="949,1058 636,-349 623,-341 "/> <polygon id="325" class="fil174" points="949,1058 626,-343 613,-334 "/> <polygon id="326" class="fil173" points="949,1058 615,-336 602,-327 "/> <polygon id="327" class="fil172" points="949,1058 605,-329 592,-320 "/> <polygon id="328" class="fil171" points="949,1058 595,-322 582,-313 "/> <polygon id="329" class="fil170" points="949,1058 584,-315 572,-305 "/> <polygon id="330" class="fil169" points="949,1058 574,-307 561,-298 "/> <polygon id="331" class="fil168" points="949,1058 564,-300 551,-290 "/> <polygon id="332" class="fil167" points="949,1058 554,-292 541,-282 "/> <polygon id="333" class="fil166" points="949,1058 544,-284 531,-273 "/> <polygon id="334" class="fil165" points="949,1058 534,-275 521,-265 "/> <polygon id="335" class="fil164" points="949,1058 524,-267 511,-256 "/> <polygon id="336" class="fil163" points="949,1058 514,-258 502,-247 "/> <polygon id="337" class="fil162" points="949,1058 504,-249 492,-238 "/> <polygon id="338" class="fil161" points="949,1058 494,-240 482,-228 "/> <polygon id="339" class="fil160" points="949,1058 485,-231 473,-219 "/> <polygon id="340" class="fil159" points="949,1058 475,-221 463,-209 "/> <polygon id="341" class="fil158" points="949,1058 465,-212 454,-199 "/> <polygon id="342" class="fil157" points="949,1058 456,-202 444,-189 "/> <polygon id="343" class="fil156" points="949,1058 447,-192 435,-179 "/> <polygon id="344" class="fil155" points="949,1058 437,-181 426,-168 "/> <polygon id="345" class="fil154" points="949,1058 428,-171 417,-158 "/> <polygon id="346" class="fil153" points="949,1058 419,-160 407,-147 "/> <polygon id="347" class="fil152" points="949,1058 410,-149 398,-136 "/> <polygon id="348" class="fil151" points="949,1058 401,-138 390,-124 "/> <polygon id="349" class="fil150" points="949,1058 392,-127 381,-113 "/> <polygon id="350" class="fil149" points="949,1058 383,-116 372,-101 "/> <polygon id="351" class="fil148" points="949,1058 374,-104 363,-90 "/> <polygon id="352" class="fil147" points="949,1058 366,-93 355,-78 "/> <polygon id="353" class="fil146" points="949,1058 357,-81 346,-66 "/> <polygon id="354" class="fil145" points="949,1058 349,-69 338,-53 "/> <polygon id="355" class="fil144" points="949,1058 340,-56 330,-41 "/> <polygon id="356" class="fil143" points="949,1058 332,-44 322,-28 "/> <polygon id="357" class="fil142" points="949,1058 324,-31 313,-15 "/> <polygon id="358" class="fil141" points="949,1058 316,-19 306,-2 "/> <polygon id="359" class="fil140" points="949,1058 308,-6 298,11 "/> <polygon id="360" class="fil139" points="949,1058 300,7 290,24 "/> <polygon id="361" class="fil138" points="949,1058 292,21 282,37 "/> <polygon id="362" class="fil137" points="949,1058 284,34 275,51 "/> <polygon id="363" class="fil136" points="949,1058 276,48 267,65 "/> <polygon id="364" class="fil135" points="949,1058 269,61 260,79 "/> <polygon id="365" class="fil134" points="949,1058 262,75 252,93 "/> <polygon id="366" class="fil133" points="949,1058 254,89 245,107 "/> <polygon id="367" class="fil132" points="949,1058 247,103 238,121 "/> <polygon id="368" class="fil131" points="949,1058 240,118 231,136 "/> <polygon id="369" class="fil130" points="949,1058 233,132 224,150 "/> <polygon id="370" class="fil129" points="949,1058 226,147 218,165 "/> <polygon id="371" class="fil128" points="949,1058 219,161 211,180 "/> <polygon id="372" class="fil127" points="949,1058 213,176 204,195 "/> <polygon id="373" class="fil126" points="949,1058 206,191 198,210 "/> <polygon id="374" class="fil125" points="949,1058 200,206 192,225 "/> <polygon id="375" class="fil124" points="949,1058 193,222 186,241 "/> <polygon id="376" class="fil123" points="949,1058 187,237 180,256 "/> <polygon id="377" class="fil122" points="949,1058 181,252 174,272 "/> <polygon id="378" class="fil121" points="949,1058 175,268 168,288 "/> <polygon id="379" class="fil120" points="949,1058 169,284 162,304 "/> <polygon id="380" class="fil119" points="949,1058 163,300 156,320 "/> <polygon id="381" class="fil118" points="949,1058 158,316 151,336 "/> <polygon id="382" class="fil117" points="949,1058 152,332 146,352 "/> <polygon id="383" class="fil116" points="949,1058 147,348 140,368 "/> <polygon id="384" class="fil115" points="949,1058 142,364 135,385 "/> <polygon id="385" class="fil114" points="949,1058 137,381 130,401 "/> <polygon id="386" class="fil113" points="949,1058 132,397 125,418 "/> <polygon id="387" class="fil112" points="949,1058 127,414 121,435 "/> <polygon id="388" class="fil111" points="949,1058 122,430 116,451 "/> <polygon id="389" class="fil110" points="949,1058 117,447 112,468 "/> <polygon id="390" class="fil110" points="949,1058 113,464 107,485 "/> <polygon id="391" class="fil109" points="949,1058 108,481 103,502 "/> <polygon id="392" class="fil108" points="949,1058 104,498 99,520 "/> <polygon id="393" class="fil107" points="949,1058 100,515 95,537 "/> <polygon id="394" class="fil106" points="949,1058 96,533 91,554 "/> <polygon id="395" class="fil105" points="949,1058 92,550 87,572 "/> <polygon id="396" class="fil105" points="949,1058 88,567 84,589 "/> <polygon id="397" class="fil104" points="949,1058 85,585 80,607 "/> <polygon id="398" class="fil103" points="949,1058 81,602 77,624 "/> <polygon id="399" class="fil102" points="949,1058 78,620 74,642 "/> <polygon id="400" class="fil101" points="949,1058 75,638 71,660 "/> <polygon id="401" class="fil100" points="949,1058 72,655 68,678 "/> <polygon id="402" class="fil99" points="949,1058 69,673 65,695 "/> <polygon id="403" class="fil98" points="949,1058 66,691 63,713 "/> <polygon id="404" class="fil97" points="949,1058 63,709 60,731 "/> <polygon id="405" class="fil96" points="949,1058 61,727 58,749 "/> <polygon id="406" class="fil95" points="949,1058 58,745 55,767 "/> <polygon id="407" class="fil94" points="949,1058 56,763 53,786 "/> <polygon id="408" class="fil93" points="949,1058 54,781 51,804 "/> <polygon id="409" class="fil92" points="949,1058 52,799 50,822 "/> <polygon id="410" class="fil91" points="949,1058 50,817 48,840 "/> <polygon id="411" class="fil90" points="949,1058 48,836 46,858 "/> <polygon id="412" class="fil89" points="949,1058 47,854 45,877 "/> <polygon id="413" class="fil88" points="949,1058 45,872 44,895 "/> <polygon id="414" class="fil88" points="949,1058 44,890 42,913 "/> <polygon id="415" class="fil88" points="949,1058 43,909 41,932 "/> <polygon id="416" class="fil88" points="949,1058 42,927 41,950 "/> <polygon id="417" class="fil87" points="949,1058 41,946 40,969 "/> <polygon id="418" class="fil86" points="949,1058 40,964 39,987 "/> <polygon id="419" class="fil85" points="949,1058 39,982 39,1005 "/> <polygon id="420" class="fil84" points="949,1058 39,1001 38,1024 "/> <polygon id="421" class="fil83" points="949,1058 38,1019 38,1042 "/> <polygon id="422" class="fil82" points="949,1058 38,1038 38,1061 "/> <polygon id="423" class="fil81" points="949,1058 38,1056 38,1079 "/> <polygon id="424" class="fil80" points="949,1058 38,1075 39,1098 "/> <polygon id="425" class="fil79" points="949,1058 38,1093 39,1116 "/> <polygon id="426" class="fil78" points="949,1058 39,1112 39,1135 "/> <polygon id="427" class="fil77" points="949,1058 39,1130 40,1153 "/> <polygon id="428" class="fil76" points="949,1058 40,1148 41,1171 "/> <polygon id="429" class="fil75" points="949,1058 41,1167 42,1190 "/> <polygon id="430" class="fil74" points="949,1058 42,1185 43,1208 "/> <polygon id="431" class="fil73" points="949,1058 43,1204 44,1227 "/> <polygon id="432" class="fil72" points="949,1058 44,1222 45,1245 "/> <polygon id="433" class="fil71" points="949,1058 45,1240 47,1263 "/> <polygon id="434" class="fil70" points="949,1058 46,1259 48,1281 "/> <polygon id="435" class="fil69" points="949,1058 48,1277 50,1300 "/> <polygon id="436" class="fil68" points="949,1058 50,1295 52,1318 "/> <polygon id="437" class="fil67" points="949,1058 52,1313 54,1336 "/> <polygon id="438" class="fil66" points="949,1058 54,1331 56,1354 "/> <polygon id="439" class="fil65" points="949,1058 56,1350 58,1372 "/> <polygon id="440" class="fil64" points="949,1058 58,1368 61,1390 "/> <polygon id="441" class="fil63" points="949,1058 60,1386 63,1408 "/> <polygon id="442" class="fil62" points="949,1058 63,1404 66,1426 "/> <polygon id="443" class="fil61" points="949,1058 65,1422 69,1444 "/> <polygon id="444" class="fil60" points="949,1058 68,1439 72,1462 "/> <polygon id="445" class="fil59" points="949,1058 71,1457 75,1479 "/> <polygon id="446" class="fil58" points="949,1058 74,1475 78,1497 "/> <polygon id="447" class="fil57" points="949,1058 77,1493 82,1515 "/> <polygon id="448" class="fil56" points="949,1058 81,1510 85,1532 "/> <polygon id="449" class="fil55" points="949,1058 84,1528 89,1550 "/> <polygon id="450" class="fil54" points="949,1058 88,1545 92,1567 "/> <polygon id="451" class="fil53" points="949,1058 92,1563 96,1584 "/> <polygon id="452" class="fil52" points="949,1058 95,1580 100,1602 "/> <polygon id="453" class="fil51" points="949,1058 99,1597 104,1619 "/> <polygon id="454" class="fil50" points="949,1058 103,1615 109,1636 "/> <polygon id="455" class="fil49" points="949,1058 108,1632 113,1653 "/> <polygon id="456" class="fil48" points="949,1058 112,1649 118,1670 "/> <polygon id="457" class="fil46" points="949,1058 117,1666 122,1687 "/> <polygon id="458" class="fil47" points="949,1058 121,1682 127,1703 "/> <polygon id="459" class="fil46" points="949,1058 126,1699 132,1720 "/> <polygon id="460" class="fil46" points="949,1058 131,1716 137,1736 "/> <polygon id="461" class="fil45" points="949,1058 136,1732 142,1753 "/> <polygon id="462" class="fil44" points="949,1058 141,1749 147,1769 "/> <polygon id="463" class="fil43" points="949,1058 146,1765 153,1785 "/> <polygon id="464" class="fil42" points="949,1058 151,1781 158,1801 "/> <polygon id="465" class="fil41" points="949,1058 157,1797 164,1817 "/> <polygon id="466" class="fil40" points="949,1058 163,1813 170,1833 "/> <polygon id="467" class="fil39" points="949,1058 168,1829 176,1849 "/> <polygon id="468" class="fil38" points="949,1058 174,1845 182,1864 "/> <polygon id="469" class="fil37" points="949,1058 180,1861 188,1880 "/> <polygon id="470" class="fil36" points="949,1058 186,1876 194,1895 "/> <polygon id="471" class="fil35" points="949,1058 192,1891 200,1911 "/> <polygon id="472" class="fil34" points="949,1058 199,1907 207,1926 "/> <polygon id="473" class="fil33" points="949,1058 205,1922 213,1941 "/> <polygon id="474" class="fil32" points="949,1058 212,1937 220,1955 "/> <polygon id="475" class="fil31" points="949,1058 218,1952 227,1970 "/> <polygon id="476" class="fil30" points="949,1058 225,1966 233,1985 "/> <polygon id="477" class="fil29" points="949,1058 232,1981 240,1999 "/> <polygon id="478" class="fil28" points="949,1058 239,1995 248,2013 "/> <polygon id="479" class="fil27" points="949,1058 246,2010 255,2028 "/> <polygon id="480" class="fil26" points="949,1058 253,2024 262,2042 "/> <polygon id="481" class="fil25" points="949,1058 260,2038 270,2055 "/> <polygon id="482" class="fil25" points="949,1058 268,2052 277,2069 "/> <polygon id="483" class="fil24" points="949,1058 275,2066 285,2083 "/> <polygon id="484" class="fil23" points="949,1058 283,2079 292,2096 "/> <polygon id="485" class="fil22" points="949,1058 290,2093 300,2109 "/> <polygon id="486" class="fil22" points="949,1058 298,2106 308,2122 "/> <polygon id="487" class="fil21" points="949,1058 306,2119 316,2135 "/> <polygon id="488" class="fil20" points="949,1058 314,2132 324,2148 "/> <polygon id="489" class="fil19" points="949,1058 322,2145 332,2160 "/> <polygon id="490" class="fil18" points="949,1058 330,2157 341,2173 "/> <polygon id="491" class="fil17" points="949,1058 339,2170 349,2185 "/> <polygon id="492" class="fil16" points="949,1058 347,2182 358,2197 "/> <polygon id="493" class="fil15" points="949,1058 356,2194 366,2209 "/> <polygon id="494" class="fil14" points="949,1058 364,2206 375,2221 "/> <polygon id="495" class="fil13" points="949,1058 373,2218 384,2232 "/> <polygon id="496" class="fil12" points="949,1058 382,2229 393,2244 "/> <polygon id="497" class="fil11" points="949,1058 390,2241 401,2255 "/> <polygon id="498" class="fil10" points="949,1058 399,2252 410,2266 "/> <polygon id="499" class="fil9" points="949,1058 408,2263 420,2277 "/> <polygon id="500" class="fil8" points="949,1058 417,2274 429,2287 "/> <polygon id="501" class="fil7" points="949,1058 426,2285 438,2298 "/> <polygon id="502" class="fil6" points="949,1058 436,2295 447,2308 "/> <polygon id="503" class="fil5" points="949,1058 445,2305 457,2318 "/> <polygon id="504" class="fil4" points="949,1058 454,2315 466,2328 "/> <polygon id="505" class="fil3" points="949,1058 464,2325 476,2338 "/> <polygon id="506" class="fil2" points="949,1058 473,2335 485,2347 "/> <polygon id="507" class="fil1" points="949,1058 483,2345 495,2356 "/> <polygon id="508" class="fil1" points="949,1058 493,2354 505,2365 "/> <polygon id="509" class="fil246" points="949,1058 502,2363 512,2372 "/> </g> </g> <path class="fil247" d="M1207 1796c-29,152 -228,45 -236,-79 -1,-19 44,44 60,57 141,121 164,-85 176,-4 1,10 1,17 0,26zm-544 -92c14,24 13,-18 0,-3 -1,1 -1,1 0,3zm328 -156c12,11 128,-24 149,-39 21,-14 36,95 -120,70 -49,-7 -94,-59 -33,-66 16,-1 126,-26 125,-36 -1,0 -64,15 -72,16 -34,7 -96,48 -90,-39 0,0 55,9 62,9 65,-2 72,-12 120,-40 12,-7 32,77 -15,92 -43,14 -81,22 -126,33zm-340 -81c7,14 72,44 7,2l-7 -2zm33 244c8,8 8,-45 -6,-35 7,20 4,28 6,35zm43 -34c-18,-5 0,61 2,9 0,-3 0,-7 -2,-9zm-28 0c1,14 1,38 2,41 12,-1 7,-45 -2,-41zm148 -511c-50,-8 -17,8 28,6 -2,-6 -17,-4 -28,-6zm-199 510c1,-3 8,-19 -10,-12 1,15 27,61 11,17 0,-2 0,-3 -1,-5zm146 -193c-24,-2 -33,-2 -58,-4 15,19 59,16 58,4zm337 274c0,-4 13,-44 -5,-23 -19,23 0,63 5,23zm-40 -195c21,-4 80,-24 10,-11 -5,1 -147,23 -48,17 13,-1 25,-3 38,-6zm-463 -1274c-49,20 -84,142 -4,13 2,-4 5,-8 4,-13zm285 776c-27,13 29,32 -1,37 -5,1 -24,-10 -18,8 8,23 63,-16 31,-42 -4,-3 -7,-5 -12,-3zm278 -702c6,16 55,104 55,103 7,-24 -63,-149 -55,-103zm-320 711c37,16 -31,47 -5,3 2,-4 1,-4 5,-3zm24 9c2,-15 0,-29 -5,-8 -35,-24 -50,4 -40,35 31,6 41,2 45,-27zm137 -21c23,27 -30,38 -12,4 3,-5 8,-6 12,-4zm11 -16c-47,-33 -91,51 -24,63 34,6 52,-28 24,-63zm108 -670c109,98 70,248 74,254 10,17 5,24 -14,47 -129,157 -463,175 -598,5 -57,-70 -53,-109 -23,-197 80,-239 366,-246 542,-123 7,4 13,9 19,14zm-501 -99c-17,20 -73,108 -81,137 -21,73 -33,185 8,252 118,190 377,193 557,102 124,-63 138,-167 103,-293 -61,-219 -504,-324 -643,-39 -22,44 -34,78 -14,2 19,-74 62,-114 72,-157l-2 -4zm437 166c42,24 61,64 58,113 -2,26 -35,24 -60,73 -36,74 -114,94 -190,77 -86,-20 -71,-70 -90,-142 -38,-143 12,-212 170,-178 43,9 74,35 112,57zm-300 -39c-10,20 3,-4 2,11 -4,45 -20,44 -7,113 11,51 25,69 24,127 0,32 73,70 11,83 -34,6 -91,-11 -101,-52 -20,-86 -8,-175 45,-246 8,-12 16,-56 26,-36zm-26 -17c24,-13 39,15 -16,17 2,-9 8,-13 16,-17zm218 -27c69,14 178,70 176,147 -23,-29 21,-29 -67,-81 -67,-40 -76,-54 -146,-60 -2,0 -39,-12 -9,-7 0,0 17,-3 21,-3 11,1 15,2 25,4zm-79 -31c-189,6 -301,90 -284,294 3,36 -24,-17 -38,-19 17,27 94,100 108,109 127,86 336,80 458,-10 73,-53 24,-215 24,-217 38,68 31,152 34,159 24,53 53,-318 -302,-316zm249 1460c-61,47 -154,-71 -150,-73 0,0 70,4 89,0 27,-5 88,-11 83,36 -2,15 -12,26 -22,37zm29 -88c19,58 -60,-22 -18,-20 9,0 15,13 18,20zm-583 74c-54,-56 0,-135 9,-106 13,45 10,103 86,83 86,-21 149,-177 122,-75 -29,109 -118,174 -217,98zm123 -50c-79,45 -86,-18 -110,-79 -2,-7 -6,-41 20,-11 48,56 222,1 103,81l-13 9zm391 -135c24,-5 62,-22 49,25 -4,16 -36,30 -44,41 10,7 71,-61 41,-1 -34,70 -216,63 -183,-25 11,-27 -25,-21 33,-13 29,4 125,-8 38,-6 -4,1 -85,-3 -63,-17 1,-1 95,2 125,-3l4 -1zm-443 -24c0,0 -46,-26 -35,-62 1,-4 59,23 85,26 4,0 115,-5 85,13 -3,2 -95,24 -30,15 36,-5 37,-11 46,19 26,94 -181,88 -186,29 17,-7 -18,-55 2,-55 5,0 22,12 33,15zm-17 -216c40,22 28,25 83,42 33,10 62,14 96,21 9,24 7,87 -30,97 -45,12 -155,11 -162,-52 -5,-51 -3,-14 70,6 2,0 41,17 17,0 -36,-26 -110,4 -79,-108l3 -6 2 0zm43 -181c8,-7 15,22 25,36 40,59 149,111 121,170 -23,46 -183,-26 -186,-51 -3,-23 29,-137 40,-155zm250 223c-3,-76 -11,-41 51,-81 16,-11 117,-77 123,-42 6,40 -3,34 12,82 23,69 -32,86 -91,96 -56,9 -90,5 -95,-55zm355 -172c25,-34 4,87 3,87 -11,16 -24,-30 -25,20 -2,75 -27,12 -32,10 -19,16 -19,57 -35,-3 -14,-51 -8,48 -29,29 -34,-30 -15,-114 -37,-30 -31,7 -9,-105 5,-107 10,-2 114,33 150,-6zm-79 7c-50,-1 -91,-24 -13,-19 10,1 127,0 50,17 -13,3 -23,3 -37,2zm-120 -35c35,-22 14,40 12,42 -9,9 -92,37 -135,73 -22,18 -114,13 -141,-9 -73,-57 -70,-41 -122,-118 -11,-17 52,21 63,25 93,37 235,40 323,-13zm-106 -44c41,14 124,-47 127,-31 8,57 -28,68 -78,82 -106,32 -229,25 -323,-39 -19,-13 -49,-59 -3,-42 73,27 167,30 243,24 13,-1 23,2 34,6zm38 -120c57,5 52,80 34,89 -20,10 -111,36 -108,-3 4,-58 2,-88 74,-86zm-214 -2c5,0 188,2 156,11 -23,7 -179,-1 -182,0 4,17 12,-15 13,43 0,47 34,37 37,19 2,-18 -4,-19 6,-28 9,-8 -32,-21 -15,14 8,15 -15,39 -15,-27 0,-17 68,1 100,-8 40,-12 28,75 23,77 -12,7 -254,8 -244,-54 8,-47 82,-47 121,-47zm-145 -44c35,68 4,136 -4,26 0,-8 -1,-20 4,-26zm288 -47c13,-1 43,-4 31,20 -6,10 -81,11 -60,-15 5,-6 21,-5 29,-5zm-200 -28c28,7 150,24 155,26 -9,17 -165,5 -191,-33 -6,-9 34,6 36,7zm-306 -36c14,32 -25,145 -56,108 -11,-13 43,-110 47,-112 4,-2 7,1 9,4zm735 -1c17,37 43,67 64,116 24,56 19,57 -59,77 -116,29 25,8 75,-19 9,-5 20,37 5,48 -15,11 -50,35 -8,15 22,-10 18,-44 33,33 17,88 8,59 -92,56 -58,-1 -50,-1 -55,-71 -3,-36 22,-8 81,-32 31,-12 68,-42 22,-17 -32,18 -92,33 -119,1 -95,-111 1,-118 37,-186 -33,18 -112,103 -86,143 22,35 59,63 5,74 -23,4 34,-92 -61,-92 -45,0 -105,28 -103,-21 1,-28 5,-32 43,-22 23,5 25,51 34,-6 10,-59 -18,-29 67,-55 56,-17 62,-25 107,-44 6,-2 8,-2 10,2zm-674 -2c51,-8 46,158 51,108 4,-38 -33,-145 3,-103 11,13 63,143 28,34 -13,-43 -43,-56 20,-67 42,-8 85,101 216,109 75,5 89,-12 84,64 -62,6 -151,-4 -204,14 -27,10 -25,-25 -37,-55 -15,-41 -13,-44 -21,-16 -12,51 -222,87 -202,10 10,-43 13,-34 17,-81 3,-34 26,-18 37,16 0,1 24,124 25,77 1,-23 -21,-105 -21,-105 0,-4 1,-4 4,-5zm-182 -20c-51,31 -5,-35 2,-5l-2 5zm881 -41c3,50 -173,96 -202,100 -114,18 -296,1 -378,-92 -10,-10 62,34 75,40 148,64 365,49 495,-48 3,-2 9,-6 10,0zm-934 19c52,-42 106,-11 95,-83 -12,-76 102,105 18,191 -36,38 -40,-5 -27,-41 28,-83 -88,-89 -66,-38 9,20 93,16 35,40 -6,3 31,13 2,32 -24,16 -92,-49 -63,-92l6 -9zm1037 -293c31,3 25,29 24,59 -2,100 -30,217 -108,288 -23,21 -31,-21 -26,-28 25,-36 22,-57 47,-102 62,-113 37,-182 50,-210 3,-7 6,-7 13,-7zm-688 -317c135,-176 512,-144 608,81 77,180 90,453 -125,540 -200,80 -506,42 -574,-194 -42,-147 -18,-287 76,-407 5,-7 10,-13 15,-20zm-129 224c10,110 -12,166 49,281 7,13 84,123 19,109 -80,-18 -156,-299 -95,-396 9,-14 22,-14 27,6zm741 -190c98,74 124,289 75,265 -8,-5 -35,-140 -43,-163 -3,-11 -36,-95 -37,-103l5 1zm-662 -40c100,-90 -8,65 -18,83 -9,14 -51,115 -62,114 -51,-2 40,-154 58,-175 7,-8 14,-15 22,-22zm0 -22c-89,74 -110,188 -139,295 -49,184 96,345 97,355 0,3 -89,24 -94,2 -8,-33 -17,-120 -70,-125 -40,-5 9,58 -34,66 -52,9 -107,24 -83,97 22,62 84,69 127,108 47,42 135,51 195,34 99,-27 59,-11 98,83 15,36 -37,178 -45,238 -7,56 -10,232 -27,269 -32,66 -87,132 -7,189 69,49 158,17 203,-47 73,-104 13,-164 39,-264 1,-3 30,-147 31,-148 11,-13 48,-13 55,31 12,70 11,124 28,199 24,107 -38,187 89,293 76,63 242,17 156,-165 -29,-60 -36,-233 -40,-303 -2,-49 12,7 60,-9 42,-14 53,40 79,-41 8,-23 32,12 26,-66 -4,-59 7,-74 -8,-149 -16,-83 -35,-145 -81,-217 -3,-5 45,-59 54,-71 70,-111 81,-257 68,-387 -7,-76 -43,-197 -125,-225 -29,-10 -84,-121 -277,-141 -117,-11 -181,0 -283,59 -30,18 -48,6 -92,40z"/> <path class="fil247" d="M1207 1796c-29,152 -228,45 -236,-79 -1,-19 44,44 60,57 141,121 164,-85 176,-4 1,10 1,17 0,26zm-544 -92c14,24 13,-18 0,-3 -1,1 -1,1 0,3zm328 -156c12,11 128,-24 149,-39 21,-14 36,95 -120,70 -49,-7 -94,-59 -33,-66 16,-1 126,-26 125,-36 -1,0 -64,15 -72,16 -34,7 -96,48 -90,-39 0,0 55,9 62,9 65,-2 72,-12 120,-40 12,-7 32,77 -15,92 -43,14 -81,22 -126,33zm-340 -81c7,14 72,44 7,2l-7 -2zm33 244c8,8 8,-45 -6,-35 7,20 4,28 6,35zm43 -34c-18,-5 0,61 2,9 0,-3 0,-7 -2,-9zm-28 0c1,14 1,38 2,41 12,-1 7,-45 -2,-41zm148 -511c-50,-8 -17,8 28,6 -2,-6 -17,-4 -28,-6zm-199 510c1,-3 8,-19 -10,-12 1,15 27,61 11,17 0,-2 0,-3 -1,-5zm146 -193c-24,-2 -33,-2 -58,-4 15,19 59,16 58,4zm337 274c0,-4 13,-44 -5,-23 -19,23 0,63 5,23zm-40 -195c21,-4 80,-24 10,-11 -5,1 -147,23 -48,17 13,-1 25,-3 38,-6zm-463 -1274c-49,20 -84,142 -4,13 2,-4 5,-8 4,-13zm285 776c-27,13 29,32 -1,37 -5,1 -24,-10 -18,8 8,23 63,-16 31,-42 -4,-3 -7,-5 -12,-3zm278 -702c6,16 55,104 55,103 7,-24 -63,-149 -55,-103zm-320 711c37,16 -31,47 -5,3 2,-4 1,-4 5,-3zm24 9c2,-15 0,-29 -5,-8 -35,-24 -50,4 -40,35 31,6 41,2 45,-27zm137 -21c23,27 -30,38 -12,4 3,-5 8,-6 12,-4zm11 -16c-47,-33 -91,51 -24,63 34,6 52,-28 24,-63zm108 -670c109,98 70,248 74,254 10,17 5,24 -14,47 -129,157 -463,175 -598,5 -57,-70 -53,-109 -23,-197 80,-239 366,-246 542,-123 7,4 13,9 19,14zm-501 -99c-17,20 -73,108 -81,137 -21,73 -33,185 8,252 118,190 377,193 557,102 124,-63 138,-167 103,-293 -61,-219 -504,-324 -643,-39 -22,44 -34,78 -14,2 19,-74 62,-114 72,-157l-2 -4zm437 166c42,24 61,64 58,113 -2,26 -35,24 -60,73 -36,74 -114,94 -190,77 -86,-20 -71,-70 -90,-142 -38,-143 12,-212 170,-178 43,9 74,35 112,57zm-300 -39c-10,20 3,-4 2,11 -4,45 -20,44 -7,113 11,51 25,69 24,127 0,32 73,70 11,83 -34,6 -91,-11 -101,-52 -20,-86 -8,-175 45,-246 8,-12 16,-56 26,-36zm-26 -17c24,-13 39,15 -16,17 2,-9 8,-13 16,-17zm218 -27c69,14 178,70 176,147 -23,-29 21,-29 -67,-81 -67,-40 -76,-54 -146,-60 -2,0 -39,-12 -9,-7 0,0 17,-3 21,-3 11,1 15,2 25,4zm-79 -31c-189,6 -301,90 -284,294 3,36 -24,-17 -38,-19 17,27 94,100 108,109 127,86 336,80 458,-10 73,-53 24,-215 24,-217 38,68 31,152 34,159 24,53 53,-318 -302,-316zm249 1460c-61,47 -154,-71 -150,-73 0,0 70,4 89,0 27,-5 88,-11 83,36 -2,15 -12,26 -22,37zm29 -88c19,58 -60,-22 -18,-20 9,0 15,13 18,20zm-583 74c-54,-56 0,-135 9,-106 13,45 10,103 86,83 86,-21 149,-177 122,-75 -29,109 -118,174 -217,98zm123 -50c-79,45 -86,-18 -110,-79 -2,-7 -6,-41 20,-11 48,56 222,1 103,81l-13 9zm391 -135c24,-5 62,-22 49,25 -4,16 -36,30 -44,41 10,7 71,-61 41,-1 -34,70 -216,63 -183,-25 11,-27 -25,-21 33,-13 29,4 125,-8 38,-6 -4,1 -85,-3 -63,-17 1,-1 95,2 125,-3l4 -1zm-443 -24c0,0 -46,-26 -35,-62 1,-4 59,23 85,26 4,0 115,-5 85,13 -3,2 -95,24 -30,15 36,-5 37,-11 46,19 26,94 -181,88 -186,29 17,-7 -18,-55 2,-55 5,0 22,12 33,15zm-17 -216c40,22 28,25 83,42 33,10 62,14 96,21 9,24 7,87 -30,97 -45,12 -155,11 -162,-52 -5,-51 -3,-14 70,6 2,0 41,17 17,0 -36,-26 -110,4 -79,-108l3 -6 2 0zm43 -181c8,-7 15,22 25,36 40,59 149,111 121,170 -23,46 -183,-26 -186,-51 -3,-23 29,-137 40,-155zm250 223c-3,-76 -11,-41 51,-81 16,-11 117,-77 123,-42 6,40 -3,34 12,82 23,69 -32,86 -91,96 -56,9 -90,5 -95,-55zm355 -172c25,-34 4,87 3,87 -11,16 -24,-30 -25,20 -2,75 -27,12 -32,10 -19,16 -19,57 -35,-3 -14,-51 -8,48 -29,29 -34,-30 -15,-114 -37,-30 -31,7 -9,-105 5,-107 10,-2 114,33 150,-6zm-79 7c-50,-1 -91,-24 -13,-19 10,1 127,0 50,17 -13,3 -23,3 -37,2zm-120 -35c35,-22 14,40 12,42 -9,9 -92,37 -135,73 -22,18 -114,13 -141,-9 -73,-57 -70,-41 -122,-118 -11,-17 52,21 63,25 93,37 235,40 323,-13zm-106 -44c41,14 124,-47 127,-31 8,57 -28,68 -78,82 -106,32 -229,25 -323,-39 -19,-13 -49,-59 -3,-42 73,27 167,30 243,24 13,-1 23,2 34,6zm38 -120c57,5 52,80 34,89 -20,10 -111,36 -108,-3 4,-58 2,-88 74,-86zm-214 -2c5,0 188,2 156,11 -23,7 -179,-1 -182,0 4,17 12,-15 13,43 0,47 34,37 37,19 2,-18 -4,-19 6,-28 9,-8 -32,-21 -15,14 8,15 -15,39 -15,-27 0,-17 68,1 100,-8 40,-12 28,75 23,77 -12,7 -254,8 -244,-54 8,-47 82,-47 121,-47zm-145 -44c35,68 4,136 -4,26 0,-8 -1,-20 4,-26zm288 -47c13,-1 43,-4 31,20 -6,10 -81,11 -60,-15 5,-6 21,-5 29,-5zm-200 -28c28,7 150,24 155,26 -9,17 -165,5 -191,-33 -6,-9 34,6 36,7zm-306 -36c14,32 -25,145 -56,108 -11,-13 43,-110 47,-112 4,-2 7,1 9,4zm735 -1c17,37 43,67 64,116 24,56 19,57 -59,77 -116,29 25,8 75,-19 9,-5 20,37 5,48 -15,11 -50,35 -8,15 22,-10 18,-44 33,33 17,88 8,59 -92,56 -58,-1 -50,-1 -55,-71 -3,-36 22,-8 81,-32 31,-12 68,-42 22,-17 -32,18 -92,33 -119,1 -95,-111 1,-118 37,-186 -33,18 -112,103 -86,143 22,35 59,63 5,74 -23,4 34,-92 -61,-92 -45,0 -105,28 -103,-21 1,-28 5,-32 43,-22 23,5 25,51 34,-6 10,-59 -18,-29 67,-55 56,-17 62,-25 107,-44 6,-2 8,-2 10,2zm-674 -2c51,-8 46,158 51,108 4,-38 -33,-145 3,-103 11,13 63,143 28,34 -13,-43 -43,-56 20,-67 42,-8 85,101 216,109 75,5 89,-12 84,64 -62,6 -151,-4 -204,14 -27,10 -25,-25 -37,-55 -15,-41 -13,-44 -21,-16 -12,51 -222,87 -202,10 10,-43 13,-34 17,-81 3,-34 26,-18 37,16 0,1 24,124 25,77 1,-23 -21,-105 -21,-105 0,-4 1,-4 4,-5zm-182 -20c-51,31 -5,-35 2,-5l-2 5zm881 -41c3,50 -173,96 -202,100 -114,18 -296,1 -378,-92 -10,-10 62,34 75,40 148,64 365,49 495,-48 3,-2 9,-6 10,0zm-934 19c52,-42 106,-11 95,-83 -12,-76 102,105 18,191 -36,38 -40,-5 -27,-41 28,-83 -88,-89 -66,-38 9,20 93,16 35,40 -6,3 31,13 2,32 -24,16 -92,-49 -63,-92l6 -9zm1037 -293c31,3 25,29 24,59 -2,100 -30,217 -108,288 -23,21 -31,-21 -26,-28 25,-36 22,-57 47,-102 62,-113 37,-182 50,-210 3,-7 6,-7 13,-7zm-688 -317c135,-176 512,-144 608,81 77,180 90,453 -125,540 -200,80 -506,42 -574,-194 -42,-147 -18,-287 76,-407 5,-7 10,-13 15,-20zm-129 224c10,110 -12,166 49,281 7,13 84,123 19,109 -80,-18 -156,-299 -95,-396 9,-14 22,-14 27,6zm741 -190c98,74 124,289 75,265 -8,-5 -35,-140 -43,-163 -3,-11 -36,-95 -37,-103l5 1zm-662 -40c100,-90 -8,65 -18,83 -9,14 -51,115 -62,114 -51,-2 40,-154 58,-175 7,-8 14,-15 22,-22zm0 -22c-89,74 -110,188 -139,295 -49,184 96,345 97,355 0,3 -89,24 -94,2 -8,-33 -17,-120 -70,-125 -40,-5 9,58 -34,66 -52,9 -107,24 -83,97 22,62 84,69 127,108 47,42 135,51 195,34 99,-27 59,-11 98,83 15,36 -37,178 -45,238 -7,56 -10,232 -27,269 -32,66 -87,132 -7,189 69,49 158,17 203,-47 73,-104 13,-164 39,-264 1,-3 30,-147 31,-148 11,-13 48,-13 55,31 12,70 11,124 28,199 24,107 -38,187 89,293 76,63 242,17 156,-165 -29,-60 -36,-233 -40,-303 -2,-49 12,7 60,-9 42,-14 53,40 79,-41 8,-23 32,12 26,-66 -4,-59 7,-74 -8,-149 -16,-83 -35,-145 -81,-217 -3,-5 45,-59 54,-71 70,-111 81,-257 68,-387 -7,-76 -43,-197 -125,-225 -29,-10 -84,-121 -277,-141 -117,-11 -181,0 -283,59 -30,18 -48,6 -92,40z"/> <path class="fil248" d="M1151 375c109,98 70,248 74,254 10,17 5,24 -14,47 -129,157 -463,175 -598,5 -57,-70 -53,-109 -23,-197 80,-239 366,-246 542,-123 7,4 13,9 19,14z"/> <path class="fil249" d="M900 328c-189,6 -301,90 -284,294 3,36 -24,-17 -38,-19 17,27 94,100 108,109 127,86 336,80 458,-10 73,-53 24,-215 24,-217 38,68 31,152 34,159 24,53 53,-318 -302,-316z"/> <path class="fil250" d="M1024 737c-69,0 -125,-89 -125,-198 1,-54 18,-135 62,-170 49,-32 84,2 124,32 45,32 59,28 73,87 8,31 -1,72 1,108 1,41 5,64 -31,95 -7,6 -15,11 -23,16 -23,14 -54,29 -81,30z"/> <path class="fil251" d="M896 382c15,-9 31,-11 49,-7 -41,6 -48,37 -61,71 -13,34 -28,72 -20,109 7,30 14,46 18,78 7,58 28,61 72,95 7,5 14,11 22,18 8,7 6,5 -5,2 -31,-11 -100,-39 -110,-73 -7,-25 2,-45 -11,-81 -23,-66 -29,-62 -6,-132 10,-31 24,-62 52,-80z"/> </g> </svg>
